<svg id="Logo" xmlns="http://www.w3.org/2000/svg" xmlns:xlink="http://www.w3.org/1999/xlink" width="155" height="25" viewBox="0 0 155 25">
  <defs>
    <clipPath id="clip-path">
      <path id="Clip_6" data-name="Clip 6" d="M0,0H60.409V19.034H0Z" transform="translate(0)" fill="none"/>
    </clipPath>
    <clipPath id="clip-path-2">
      <path id="Clip_109" data-name="Clip 109" d="M0,0H36.622V24.313H0Z" fill="none"/>
    </clipPath>
  </defs>
  <g id="Group_115" data-name="Group 115" transform="translate(0 0)">
    <path id="Fill_1" data-name="Fill 1" d="M49.566,19.166a7.559,7.559,0,0,1-2.718-.446,5.124,5.124,0,0,1-1.833-1.179c-.009.032-.019.063-.03.095a1.96,1.96,0,0,1-.653.921,2.69,2.69,0,0,1-.977.472,4.7,4.7,0,0,1-1.236.137,4.129,4.129,0,0,1-2.644-.826c-.052.034-.1.069-.159.1a4.824,4.824,0,0,1-1.268.533,6.233,6.233,0,0,1-1.619.191,5.832,5.832,0,0,1-1.953-.311,4.709,4.709,0,0,1-1.547-.89c-.079-.069-.156-.141-.229-.215a6.866,6.866,0,0,1-.667.436,7.653,7.653,0,0,1-1.675.694,7.889,7.889,0,0,1-2.2.286,7.28,7.28,0,0,1-2.739-.5,6.4,6.4,0,0,1-2.148-1.408,6.1,6.1,0,0,1-1.4-2.2,7.686,7.686,0,0,1-.463-2.7c0-.068,0-.134.008-.2l0-.117,0-.092c0-.079-.008-.157-.008-.237v-.014c-.048-.015-.1-.031-.159-.047a1.6,1.6,0,0,0-.394-.037v5.523a1.84,1.84,0,0,1-1.9,1.9H16.288a1.84,1.84,0,0,1-1.9-1.9v-.377c-.033.038-.066.076-.1.113a6.973,6.973,0,0,1-2.349,1.66,8.221,8.221,0,0,1-3.362.639,8.2,8.2,0,0,1-6.327-2.491C.106,14.343.034,11.254,0,9.935,0,9.629,0,9.288,0,9.277A12.457,12.457,0,0,1,.547,5.508,8.179,8.179,0,0,1,2.229,2.534,7.354,7.354,0,0,1,4.97.631,9.425,9.425,0,0,1,8.508,0a8.344,8.344,0,0,1,2.454.337,7.435,7.435,0,0,1,1.9.875A5.984,5.984,0,0,1,14.28,2.5a9.1,9.1,0,0,1,.875,1.334,6.946,6.946,0,0,1,.451,1.047,7.353,7.353,0,0,1,.816-.039,4.216,4.216,0,0,1,2.349.62c.084.055.165.114.245.175l.046-.03a4.665,4.665,0,0,1,1.251-.556A6.1,6.1,0,0,1,22,4.846a5.99,5.99,0,0,1,.977.084,4.188,4.188,0,0,1,1.081.331,2.16,2.16,0,0,1,.554.385c.188-.1.384-.192.586-.276a7.824,7.824,0,0,1,2.983-.524,6.872,6.872,0,0,1,2.624.468,5.206,5.206,0,0,1,1.972,1.4c.054.063.107.127.159.193A4.357,4.357,0,0,1,33.9,5.95a7.055,7.055,0,0,1,4.262-1.1,7.043,7.043,0,0,1,3.963.983A1.786,1.786,0,0,1,43.4,5.006V3.547a1.851,1.851,0,0,1,1.9-1.925h2.667a1.851,1.851,0,0,1,1.9,1.925V4.979h1.454a1.84,1.84,0,0,1,1.9,1.9V9.373a1.84,1.84,0,0,1-1.9,1.9H49.868v.5a2.32,2.32,0,0,0,.073.675h.047a1.284,1.284,0,0,0,.3-.029,1.122,1.122,0,0,0,.173-.053l.07-.032a2.5,2.5,0,0,1,.577-.158l.073-.012.141-.006a1.588,1.588,0,0,1,1.471,1.01l.784,1.977a2.07,2.07,0,0,1,.143,1.155,1.731,1.731,0,0,1-.163,1.119,2,2,0,0,1-.666.745,7.6,7.6,0,0,1-1.271.636,5.418,5.418,0,0,1-2.052.366" transform="translate(39.786 2.966)" fill="#040448"/>
    <path id="Fill_3" data-name="Fill 3" d="M53.055,14.975l-.778-1.965a1.32,1.32,0,0,0-1.226-.852l-.1,0-.073.011a2.209,2.209,0,0,0-.508.139l-.062.027a1.124,1.124,0,0,1-.229.074,1.582,1.582,0,0,1-.36.037c-.076,0-.208-.008-.247-.058a1.654,1.654,0,0,1-.143-.888v-.767h1.724A1.562,1.562,0,0,0,52.686,9.1V6.612a1.563,1.563,0,0,0-1.633-1.633H49.329v-1.7A1.573,1.573,0,0,0,47.7,1.622H45.029A1.573,1.573,0,0,0,43.4,3.278v1.7a1.543,1.543,0,0,0-1.442.983,6.452,6.452,0,0,0-4.061-1.118,6.809,6.809,0,0,0-4.1,1.052,3.953,3.953,0,0,0-1.11,1.211,5,5,0,0,0-.374-.491,4.927,4.927,0,0,0-1.871-1.324,6.6,6.6,0,0,0-2.522-.448,7.536,7.536,0,0,0-2.879.5,6.373,6.373,0,0,0-.746.366,1.747,1.747,0,0,0-.611-.48,3.924,3.924,0,0,0-1.012-.309,5.684,5.684,0,0,0-.932-.081,5.829,5.829,0,0,0-1.613.2,4.373,4.373,0,0,0-1.179.522c-.072.047-.14.1-.207.146a3.059,3.059,0,0,0-.38-.291,3.955,3.955,0,0,0-2.2-.576,6.418,6.418,0,0,0-1.005.067,6.456,6.456,0,0,0-.5-1.218A8.749,8.749,0,0,0,13.8,2.4a5.709,5.709,0,0,0-1.353-1.233A7.1,7.1,0,0,0,10.612.326,8.035,8.035,0,0,0,8.238,0,9.16,9.16,0,0,0,4.8.611,7.109,7.109,0,0,0,2.159,2.445,7.9,7.9,0,0,0,.534,5.322,12.057,12.057,0,0,0,0,9.013S0,9.354,0,9.659c.032,1.383.124,4.333,2.174,6.565a7.939,7.939,0,0,0,6.128,2.4,7.961,7.961,0,0,0,3.252-.616,6.711,6.711,0,0,0,2.26-1.595,6.578,6.578,0,0,0,.569-.724v1.169a1.562,1.562,0,0,0,1.633,1.632h2.667a1.562,1.562,0,0,0,1.633-1.632v-5.58a.415.415,0,0,1,.021-.113.335.335,0,0,1,.038-.079l0,0a.536.536,0,0,1,.172-.019,1.94,1.94,0,0,1,.5.048c.152.043.271.081.363.113,0,.069-.01.137-.01.206,0,.115.01.226.014.339s-.014.2-.014.308a7.435,7.435,0,0,0,.446,2.611A5.835,5.835,0,0,0,23.193,16.8a6.149,6.149,0,0,0,2.058,1.348,7.019,7.019,0,0,0,2.639.479,7.611,7.611,0,0,0,2.123-.276,7.343,7.343,0,0,0,1.616-.669,6.218,6.218,0,0,0,.831-.567,4.075,4.075,0,0,0,.377.378,4.452,4.452,0,0,0,1.46.838,5.553,5.553,0,0,0,1.862.3,5.955,5.955,0,0,0,1.549-.182,4.547,4.547,0,0,0,1.2-.5c.11-.068.215-.14.315-.214a3.769,3.769,0,0,0,2.63.9,4.423,4.423,0,0,0,1.164-.128,2.4,2.4,0,0,0,.879-.421,1.7,1.7,0,0,0,.567-.8,1.978,1.978,0,0,0,.112-.618c.057.073.116.145.176.216A4.8,4.8,0,0,0,46.675,18.2a7.307,7.307,0,0,0,2.622.428,5.171,5.171,0,0,0,1.95-.346,7.383,7.383,0,0,0,1.224-.612,1.741,1.741,0,0,0,.577-.647,1.475,1.475,0,0,0,.126-1,1.767,1.767,0,0,0-.119-1.053" transform="translate(40.056 3.236)" fill="#040448"/>
    <g id="Group_7" data-name="Group 7" transform="translate(94.475 3.099)">
      <path id="Clip_6-2" data-name="Clip 6" d="M0,0H60.409V19.034H0Z" transform="translate(0)" fill="none"/>
      <g id="Group_7-2" data-name="Group 7" clip-path="url(#clip-path)">
        <path id="Fill_5" data-name="Fill 5" d="M35.61,19.034a4.54,4.54,0,0,1-2.5-.655c-.019.016-.038.032-.058.047a2.65,2.65,0,0,1-.974.471,4.756,4.756,0,0,1-1.236.136,4.129,4.129,0,0,1-2.644-.826c-.052.035-.1.069-.159.1a4.82,4.82,0,0,1-1.267.532,6.249,6.249,0,0,1-1.621.191,5.83,5.83,0,0,1-1.952-.311,4.727,4.727,0,0,1-1.547-.889,4.126,4.126,0,0,1-1.037-1.386,4.043,4.043,0,0,1-.367-1.694c0-.116.007-.229.015-.34-.008-.112-.015-.208-.015-.306a4.318,4.318,0,0,1,.638-2.371,2.722,2.722,0,0,1-.321-.1c-.089-.033-.22-.073-.386-.121a1.6,1.6,0,0,0-.395-.037V17a1.84,1.84,0,0,1-1.9,1.9H15.218a1.8,1.8,0,0,1-1.834-1.354c-.048.038-.1.074-.145.11a6.118,6.118,0,0,1-2.163.973,9.983,9.983,0,0,1-2.349.271H1.9A1.84,1.84,0,0,1,0,17V1.9A1.84,1.84,0,0,1,1.9,0H7.926a7.552,7.552,0,0,1,4.5,1.223,4.711,4.711,0,0,1,1.855,3.563,6.487,6.487,0,0,1,1.068-.073,4.215,4.215,0,0,1,2.348.62c.084.055.166.113.246.176l.046-.031a4.679,4.679,0,0,1,1.251-.556,6.1,6.1,0,0,1,1.688-.209,6,6,0,0,1,.977.085,4.149,4.149,0,0,1,1.081.33,2.361,2.361,0,0,1,.389.241,8.086,8.086,0,0,1,3.511-.656,6.316,6.316,0,0,1,4.546,1.455,1.821,1.821,0,0,1,.454-.785,1.64,1.64,0,0,1,.689-.424,1.538,1.538,0,0,1,.439-.063h.071c.081,0,.179,0,.295,0,.179,0,.4,0,.639-.005.294,0,.619-.007.938-.007a5.589,5.589,0,0,1,1.766.125,1.977,1.977,0,0,1,.252.131l.056.036a2.884,2.884,0,0,1,.8-.333,4.257,4.257,0,0,1,1.179-.135,6.019,6.019,0,0,1,1.147.107,5.691,5.691,0,0,1,1.564.558L43,4.933a5.725,5.725,0,0,1,1.513-.22h.122a4.969,4.969,0,0,1,2.2.476A4.732,4.732,0,0,1,48.5,6.481a4.84,4.84,0,0,1,.3.409,4.465,4.465,0,0,1,.721-.77,4.77,4.77,0,0,1,.593-.418,6.989,6.989,0,0,1,1.374-.624,8.418,8.418,0,0,1,2.7-.365h.049c.261,0,.523.009.781.027a7.8,7.8,0,0,1,3.17.925,4.316,4.316,0,0,1,.451.316,3.791,3.791,0,0,1,1.158,1.534,4.458,4.458,0,0,1,.318,1.656c0,.113-.007.215-.015.316.009.11.015.22.015.331a2.677,2.677,0,0,1-.357,1.488,3.987,3.987,0,0,1,.646,2.187,6.72,6.72,0,0,1,0,.674l0,.038a4.943,4.943,0,0,1-.471,2.042,4.543,4.543,0,0,1-1.291,1.536,7.474,7.474,0,0,1-4.694,1.25,10.053,10.053,0,0,1-2.29-.236,8.26,8.26,0,0,1-1.665-.566,2.112,2.112,0,0,1-.215.195,2.666,2.666,0,0,1-1,.474,4.791,4.791,0,0,1-1.213.133A3.846,3.846,0,0,1,43.4,15.989v.987a1.85,1.85,0,0,1-1.9,1.924H38.826a1.937,1.937,0,0,1-1.123-.333,2.9,2.9,0,0,1-.776.33,4.756,4.756,0,0,1-1.236.136H35.61Z" transform="translate(0)" fill="#040448"/>
      </g>
    </g>
    <path id="Fill_8" data-name="Fill 8" d="M59.862,13.237a3.623,3.623,0,0,0-.674-2.146c-.013-.016-.028-.029-.041-.044.029-.036.055-.071.076-.1a2.354,2.354,0,0,0,.35-1.4c0-.111-.007-.221-.015-.33.007-.1.015-.2.015-.316a4.172,4.172,0,0,0-.3-1.556A3.518,3.518,0,0,0,58.2,5.921a3.929,3.929,0,0,0-.41-.288A7.589,7.589,0,0,0,55.814,4.9a7.441,7.441,0,0,0-1.087-.158c-.188-.013-.469-.028-.81-.026a8.121,8.121,0,0,0-2.619.351,6.758,6.758,0,0,0-1.319.6,4.569,4.569,0,0,0-.559.395,4.04,4.04,0,0,0-.908,1.078,4.555,4.555,0,0,0-.492-.755,4.462,4.462,0,0,0-1.565-1.218,4.8,4.8,0,0,0-2.208-.449,5.453,5.453,0,0,0-1.427.205L41.43,5.4a5.447,5.447,0,0,0-1.593-.588,5.692,5.692,0,0,0-1.059-.1,4.111,4.111,0,0,0-1.145.125,2.432,2.432,0,0,0-.876.407,1.46,1.46,0,0,0-.191-.141,1.761,1.761,0,0,0-.214-.111,26.97,26.97,0,0,0-3.536-.1,1.286,1.286,0,0,0-.431.051,1.362,1.362,0,0,0-.575.356,1.769,1.769,0,0,0-.466,1.19,4.352,4.352,0,0,0-.329-.365,6.016,6.016,0,0,0-4.4-1.416,7.6,7.6,0,0,0-3.549.708,1.878,1.878,0,0,0-.464-.318,3.9,3.9,0,0,0-1.012-.309,5.694,5.694,0,0,0-.932-.081,5.829,5.829,0,0,0-1.613.2,4.373,4.373,0,0,0-1.179.522c-.071.047-.14.095-.207.145a3.151,3.151,0,0,0-.38-.29,3.952,3.952,0,0,0-2.2-.576,5.173,5.173,0,0,0-1.313.131A4.568,4.568,0,0,0,12,1.172,7.288,7.288,0,0,0,7.657,0H1.633A1.562,1.562,0,0,0,0,1.633v15.1a1.562,1.562,0,0,0,1.633,1.632H8.457a9.725,9.725,0,0,0,2.286-.263,5.822,5.822,0,0,0,2.068-.93,4.754,4.754,0,0,0,.505-.421,1.56,1.56,0,0,0,1.633,1.614h2.667a1.561,1.561,0,0,0,1.632-1.632v-5.58a.438.438,0,0,1,.022-.113.329.329,0,0,1,.037-.079h0a.489.489,0,0,1,.173-.02,1.9,1.9,0,0,1,.5.048c.174.05.311.093.406.128a1.7,1.7,0,0,0,.613.136c.033,0,.074-.005.114-.009a3.9,3.9,0,0,0-.869,2.6c0,.1.008.2.016.3-.008.115-.016.23-.016.35a3.767,3.767,0,0,0,.342,1.582,3.834,3.834,0,0,0,.97,1.3,4.465,4.465,0,0,0,1.46.838,5.553,5.553,0,0,0,1.862.3,5.979,5.979,0,0,0,1.55-.182,4.571,4.571,0,0,0,1.195-.5c.111-.069.216-.141.316-.215a3.769,3.769,0,0,0,2.63.9,4.457,4.457,0,0,0,1.163-.127,2.4,2.4,0,0,0,.878-.421,2.056,2.056,0,0,0,.2-.183,4.193,4.193,0,0,0,2.525.731h.081a4.47,4.47,0,0,0,1.164-.127,2.447,2.447,0,0,0,.857-.405,1.639,1.639,0,0,0,1.113.4h2.667a1.572,1.572,0,0,0,1.633-1.655V11.221a1.689,1.689,0,0,1,.044-.185.462.462,0,0,1,.038-.085.537.537,0,0,1,.153-.015c.055,0,.06.005.079.025a.588.588,0,0,1,.045.277v2.957c0,3.741,2.554,4.3,4.077,4.3a4.48,4.48,0,0,0,1.144-.125,2.4,2.4,0,0,0,.9-.423,1.91,1.91,0,0,0,.317-.319l.134.068a7.953,7.953,0,0,0,1.66.57,9.747,9.747,0,0,0,2.227.229A7.227,7.227,0,0,0,58.2,17.3a4.269,4.269,0,0,0,1.215-1.444,4.8,4.8,0,0,0,.445-1.974,6,6,0,0,0,0-.646" transform="translate(94.745 3.369)" fill="#040448"/>
    <path id="Fill_10" data-name="Fill 10" d="M21.218,5.98a2.954,2.954,0,0,0-1.1-.834A6.376,6.376,0,0,0,18.695,4.7q-.756-.144-1.423-.278a5.019,5.019,0,0,1-1.1-.333.671.671,0,0,1-.434-.645q0-.734,1.089-.734a1.531,1.531,0,0,1,.879.189.66.66,0,0,1,.255.567,1.75,1.75,0,0,1-.011.223,1.5,1.5,0,0,0-.011.177.226.226,0,0,0,.167.234,1.314,1.314,0,0,0,.411.055h2.09a.67.67,0,0,0,.6-.266,1.422,1.422,0,0,0,.156-.779,3.092,3.092,0,0,0-.223-1.156,2.446,2.446,0,0,0-.756-.989,4.116,4.116,0,0,0-1.411-.7A7.648,7.648,0,0,0,16.783,0a7.555,7.555,0,0,0-2.289.3,4.411,4.411,0,0,0-1.512.789,2.86,2.86,0,0,0-.834,1.134,3.541,3.541,0,0,0-.256,1.312,2.754,2.754,0,0,0,.4,1.556,3.028,3.028,0,0,0,1.011.956,5.033,5.033,0,0,0,1.323.533q.711.178,1.322.311a7.011,7.011,0,0,1,1.012.29q.4.156.4.466a.434.434,0,0,1-.189.378,1.6,1.6,0,0,1-.811.134,3.2,3.2,0,0,1-.945-.134,4.5,4.5,0,0,1-.789-.322,3.61,3.61,0,0,1-.611-.4q-.256-.211-.412-.367a.318.318,0,0,0-.278-.111.977.977,0,0,0-.411.266L11.772,8.175a.257.257,0,0,0-.113-.161c-.1-.051-.2-.107-.322-.167a.7.7,0,0,1-.278-.222.984.984,0,0,1-.122-.578V4.291a6.341,6.341,0,0,0-.211-1.668,3.668,3.668,0,0,0-.678-1.356A3.37,3.37,0,0,0,8.859.345,4.025,4.025,0,0,0,7.114,0,5,5,0,0,0,5.868.134,3.1,3.1,0,0,0,5,.489a2.141,2.141,0,0,0-.555.478,2.246,2.246,0,0,0-.311.523V1.468A2.317,2.317,0,0,0,1.645,0,3.47,3.47,0,0,0,.778.089a1.362,1.362,0,0,0-.5.223A.68.68,0,0,0,.055.589.776.776,0,0,0,0,.867V2.535a.529.529,0,0,0,.133.433,1.249,1.249,0,0,0,.312.167.711.711,0,0,1,.3.211.972.972,0,0,1,.123.589V10.27c0,.386.185.578.555.578H4.09c.37,0,.556-.192.556-.578V4.713a2.278,2.278,0,0,1,.089-.422,1.4,1.4,0,0,1,.211-.423,1.042,1.042,0,0,1,.389-.322,1.4,1.4,0,0,1,.622-.122,1.148,1.148,0,0,1,.856.355A1.41,1.41,0,0,1,7.158,4.8V7.758q0,3.225,3,3.224a3.476,3.476,0,0,0,.867-.089,1.37,1.37,0,0,0,.5-.222.685.685,0,0,0,.222-.278.778.778,0,0,0,.056-.278V9.334c.108.111.227.225.366.348a4.4,4.4,0,0,0,.956.611,6.957,6.957,0,0,0,1.434.489,8.681,8.681,0,0,0,1.979.2,6.3,6.3,0,0,0,3.868-.967,3.093,3.093,0,0,0,1.245-2.568,2.264,2.264,0,0,0-.434-1.467" transform="translate(131.771 9.697)" fill="#aa2f45"/>
    <path id="Fill_12" data-name="Fill 12" d="M4.4,7.78a.79.79,0,0,1-.167-.022.464.464,0,0,1-.2-.111.774.774,0,0,1-.178-.256,1.16,1.16,0,0,1-.078-.478V.578C3.779.192,3.594,0,3.224,0H.556C.185,0,0,.192,0,.578V7.624q0,3.269,3,3.224a3.455,3.455,0,0,0,.879-.089,1.379,1.379,0,0,0,.489-.222.665.665,0,0,0,.222-.29.858.858,0,0,0,.055-.288V8.291A1.642,1.642,0,0,0,4.613,7.9C4.591,7.821,4.52,7.78,4.4,7.78" transform="translate(127.058 9.831)" fill="#aa2f45"/>
    <path id="Fill_14" data-name="Fill 14" d="M7.38,15.561H.555A.493.493,0,0,1,0,15V.556A.493.493,0,0,1,.555,0H6.58a6.259,6.259,0,0,1,3.713.967A3.746,3.746,0,0,1,11.626,4.2a3.885,3.885,0,0,1-.278,1.6,2.72,2.72,0,0,1-.667.933,1.944,1.944,0,0,1-.823.434,3.407,3.407,0,0,1-.744.1v.045a3.285,3.285,0,0,1,1,.2,3.783,3.783,0,0,1,1.166.656,4.078,4.078,0,0,1,.978,1.178,3.52,3.52,0,0,1,.412,1.767,4.661,4.661,0,0,1-.423,2.09A3.705,3.705,0,0,1,11.1,14.572a4.782,4.782,0,0,1-1.69.756A8.733,8.733,0,0,1,7.38,15.561Zm-3.335-6.6v3.4H6.113a2.282,2.282,0,0,0,1.456-.378,1.629,1.629,0,0,0,.456-1.311,1.491,1.491,0,0,0-.567-1.322A2.532,2.532,0,0,0,6,8.959Zm0-5.757V6.18H5.624a2.091,2.091,0,0,0,1.423-.39,1.455,1.455,0,0,0,.422-1.122c0-.973-.718-1.467-2.134-1.467Z" transform="translate(95.714 4.984)" fill="#aa2f45"/>
    <path id="Fill_16" data-name="Fill 16" d="M8.892.556A.47.47,0,0,0,8.625.289,2.824,2.824,0,0,0,7.892.067,4.555,4.555,0,0,0,7.136,0,4.739,4.739,0,0,0,5.824.156a3.309,3.309,0,0,0-.889.389,2.062,2.062,0,0,0-.555.511,2.041,2.041,0,0,0-.29.545V1.578A2.445,2.445,0,0,0,3.168.4,2.909,2.909,0,0,0,1.556,0,3.253,3.253,0,0,0,.345.156.513.513,0,0,0,0,.645v1.89a1.526,1.526,0,0,0,.044.4.223.223,0,0,0,.245.155A.7.7,0,0,1,.578,3.2a.818.818,0,0,1,.2.256,1.04,1.04,0,0,1,.089.478v6.358a.491.491,0,0,0,.556.555H4.09a.491.491,0,0,0,.556-.555V4.713a1.447,1.447,0,0,1,.067-.422,1.4,1.4,0,0,1,.211-.423,1.026,1.026,0,0,1,.4-.322,1.469,1.469,0,0,1,.634-.122,3,3,0,0,1,.8.088q.311.09.489.156a.927.927,0,0,0,.234.067c.036,0,.092-.082.166-.245L8.781,1.045A.793.793,0,0,0,8.892.556" transform="translate(108.163 9.697)" fill="#aa2f45"/>
    <path id="Fill_18" data-name="Fill 18" d="M9.248,10.981A2.379,2.379,0,0,1,6.736,9.425a2.83,2.83,0,0,1-.378.523,2.758,2.758,0,0,1-.622.511,3.448,3.448,0,0,1-.912.378,4.9,4.9,0,0,1-1.267.144,4.472,4.472,0,0,1-1.5-.233,3.407,3.407,0,0,1-1.111-.633,2.776,2.776,0,0,1-.7-.934A2.7,2.7,0,0,1,0,8.047,2.737,2.737,0,0,1,.956,5.8,5.234,5.234,0,0,1,4.2,5.024H6.247V3.912a1.244,1.244,0,0,0-.289-.933,1.138,1.138,0,0,0-.8-.267.9.9,0,0,0-1.023,1,1.358,1.358,0,0,0,.012.189.941.941,0,0,1,.011.146.234.234,0,0,1-.1.189.928.928,0,0,1-.478.077H1.423a.629.629,0,0,1-.578-.288A1.07,1.07,0,0,1,.7,3.59a3.685,3.685,0,0,1-.034-.5A2.657,2.657,0,0,1,1.823.845,5.889,5.889,0,0,1,5.291,0,5.035,5.035,0,0,1,8.926,1.1a4.063,4.063,0,0,1,1.1,2.99V7.047a.826.826,0,0,0,.178.611,1.207,1.207,0,0,0,.333.234,2.186,2.186,0,0,1,.2.122.457.457,0,0,1,.156.411V10.07a.965.965,0,0,1-.056.3.649.649,0,0,1-.222.3,1.4,1.4,0,0,1-.489.221A3.456,3.456,0,0,1,9.248,10.981ZM4.713,6.691c-.6,0-.912.254-.912.756a.62.62,0,0,0,.245.522.921.921,0,0,0,.578.189A1.829,1.829,0,0,0,5.447,8a1.9,1.9,0,0,0,.49-.334,1.216,1.216,0,0,0,.311-.511V6.691Z" transform="translate(115.965 9.697)" fill="#aa2f45"/>
    <path id="Fill_20" data-name="Fill 20" d="M8.892.556A.47.47,0,0,0,8.625.289,2.836,2.836,0,0,0,7.892.067,4.555,4.555,0,0,0,7.136,0,4.739,4.739,0,0,0,5.824.156a3.309,3.309,0,0,0-.889.389,2.082,2.082,0,0,0-.556.511A2.065,2.065,0,0,0,4.09,1.6V1.578A2.445,2.445,0,0,0,3.168.4,2.909,2.909,0,0,0,1.556,0,3.253,3.253,0,0,0,.345.156.513.513,0,0,0,0,.645v1.89a1.526,1.526,0,0,0,.044.4.223.223,0,0,0,.245.155A.7.7,0,0,1,.578,3.2a.818.818,0,0,1,.2.256,1.04,1.04,0,0,1,.089.478v6.358a.491.491,0,0,0,.556.555H4.09a.491.491,0,0,0,.556-.555V4.713a1.447,1.447,0,0,1,.067-.422,1.4,1.4,0,0,1,.211-.423,1.026,1.026,0,0,1,.4-.322,1.469,1.469,0,0,1,.634-.122,3,3,0,0,1,.8.088q.311.09.489.156a.913.913,0,0,0,.233.067c.037,0,.093-.082.167-.245L8.781,1.045A.793.793,0,0,0,8.892.556" transform="translate(54.544 9.697)" fill="#bdbdd6"/>
    <path id="Fill_22" data-name="Fill 22" d="M12.738,7.38H7.047a.492.492,0,0,0-.556.556V9.758a.492.492,0,0,0,.556.556H9.6v.022a2.2,2.2,0,0,1-.1.623,1.6,1.6,0,0,1-.367.622,2.014,2.014,0,0,1-.712.478,2.849,2.849,0,0,1-1.111.189,2.75,2.75,0,0,1-2.256-1.067A5.127,5.127,0,0,1,4.2,7.936a5.444,5.444,0,0,1,.811-3.268A2.59,2.59,0,0,1,7.2,3.579a2.2,2.2,0,0,1,1.111.244,2.138,2.138,0,0,1,.667.578,2.371,2.371,0,0,1,.356.689c.074.237.125.43.155.578a.581.581,0,0,0,.2.367.737.737,0,0,0,.534.078l2.556-.378q.557-.068.49-.556c-.045-.267-.115-.581-.212-.945a5.276,5.276,0,0,0-.444-1.111,7.657,7.657,0,0,0-.745-1.134,4.631,4.631,0,0,0-1.1-1A6.035,6.035,0,0,0,9.214.278,6.944,6.944,0,0,0,7.158,0,8.052,8.052,0,0,0,4.124.533,6,6,0,0,0,1.879,2.089a6.805,6.805,0,0,0-1.4,2.49A10.817,10.817,0,0,0,0,7.936a8.313,8.313,0,0,0,1.89,5.835,6.88,6.88,0,0,0,5.335,2.056,6.857,6.857,0,0,0,2.812-.522,5.6,5.6,0,0,0,1.9-1.334,5.122,5.122,0,0,0,1.067-1.789,5.8,5.8,0,0,0,.333-1.868V7.936q0-.556-.6-.556" transform="translate(41.028 4.852)" fill="#bdbdd6"/>
    <path id="Fill_24" data-name="Fill 24" d="M19.362,10.981A2.377,2.377,0,0,1,16.85,9.425a2.917,2.917,0,0,1-.378.523,2.758,2.758,0,0,1-.622.511,3.457,3.457,0,0,1-.912.378,4.914,4.914,0,0,1-1.267.144,4.472,4.472,0,0,1-1.5-.233,3.407,3.407,0,0,1-1.111-.633,2.776,2.776,0,0,1-.7-.934,2.688,2.688,0,0,1-.178-.529.529.529,0,0,1-.067.174,4.9,4.9,0,0,1-.567.655,4.465,4.465,0,0,1-.944.7,6.241,6.241,0,0,1-1.379.567,6.514,6.514,0,0,1-1.823.233,5.951,5.951,0,0,1-2.235-.4,5.074,5.074,0,0,1-1.7-1.111A4.75,4.75,0,0,1,.377,7.747,6.365,6.365,0,0,1,0,5.513,7.415,7.415,0,0,1,.311,3.323a4.635,4.635,0,0,1,.967-1.745A4.554,4.554,0,0,1,2.956.422,6.509,6.509,0,0,1,5.424,0,5.543,5.543,0,0,1,7.536.367,3.864,3.864,0,0,1,9,1.4,4.172,4.172,0,0,1,9.848,3a7.665,7.665,0,0,1,.266,2.091A2.039,2.039,0,0,1,10,5.947a.5.5,0,0,1-.466.188H3.8v.023a1.315,1.315,0,0,0,.257.823,2.231,2.231,0,0,0,.6.544,2.446,2.446,0,0,0,.711.3,2.626,2.626,0,0,0,.589.089,2.567,2.567,0,0,0,1.39-.345,4.892,4.892,0,0,0,.833-.633A.554.554,0,0,1,8.4,6.8a.172.172,0,0,1,.054-.009.392.392,0,0,1,.256.143l1.334,1.4a.657.657,0,0,1,.1.13,2.7,2.7,0,0,1-.035-.418A2.737,2.737,0,0,1,11.07,5.8a5.234,5.234,0,0,1,3.246-.779h2.045V3.912a1.244,1.244,0,0,0-.289-.933,1.141,1.141,0,0,0-.8-.267.9.9,0,0,0-1.023,1,1.536,1.536,0,0,0,.011.189,1.065,1.065,0,0,1,.012.146.234.234,0,0,1-.1.189.931.931,0,0,1-.479.077H11.537a.631.631,0,0,1-.578-.288,1.044,1.044,0,0,1-.144-.434,3.685,3.685,0,0,1-.034-.5A2.656,2.656,0,0,1,11.937.845,5.894,5.894,0,0,1,15.405,0a5.027,5.027,0,0,1,3.633,1.1,4.057,4.057,0,0,1,1.1,2.99V7.047a.823.823,0,0,0,.178.611,1.215,1.215,0,0,0,.333.234c.029.013.092.053.2.122a.46.46,0,0,1,.155.411V10.07a.939.939,0,0,1-.056.3.649.649,0,0,1-.222.3,1.4,1.4,0,0,1-.489.221A3.46,3.46,0,0,1,19.362,10.981Zm-4.535-4.29c-.6,0-.911.254-.911.756a.621.621,0,0,0,.244.522.922.922,0,0,0,.579.189A1.854,1.854,0,0,0,15.561,8a1.878,1.878,0,0,0,.489-.334,1.22,1.22,0,0,0,.311-.511V6.691Zm-9.6-3.8a1.145,1.145,0,0,0-.823.322A2.146,2.146,0,0,0,3.89,4.246H6.535a1.378,1.378,0,0,0-.344-1.023A1.342,1.342,0,0,0,5.224,2.89Z" transform="translate(62.436 9.697)" fill="#bdbdd6"/>
    <path id="Fill_26" data-name="Fill 26" d="M9.136,12.671,8.38,10.759c-.074-.163-.159-.237-.256-.222a1.154,1.154,0,0,0-.255.067,2.171,2.171,0,0,1-.456.155,2.588,2.588,0,0,1-.611.067,1.3,1.3,0,0,1-1.1-.478A2.565,2.565,0,0,1,5.335,8.8V6.313h2.8a.491.491,0,0,0,.555-.555V3.912a.491.491,0,0,0-.555-.555h-2.8V.578C5.335.193,5.149,0,4.779,0H2.111q-.555,0-.555.578V3.357h-1A.491.491,0,0,0,0,3.912V5.758a.491.491,0,0,0,.555.555h1V8.981a8.691,8.691,0,0,0,.255,2.211,4.013,4.013,0,0,0,.834,1.635,3.707,3.707,0,0,0,1.5,1.022,6.227,6.227,0,0,0,2.234.356,4.081,4.081,0,0,0,1.545-.267,6.362,6.362,0,0,0,1.034-.511.684.684,0,0,0,.222-.256.613.613,0,0,0-.044-.5" transform="translate(82.865 6.474)" fill="#bdbdd6"/>
    <path id="Fill_28" data-name="Fill 28" d="M9.136,12.671,8.38,10.759c-.074-.163-.159-.237-.256-.222a1.154,1.154,0,0,0-.255.067,2.171,2.171,0,0,1-.456.155,2.588,2.588,0,0,1-.611.067,1.3,1.3,0,0,1-1.1-.478A2.565,2.565,0,0,1,5.335,8.8V6.313h2.8a.491.491,0,0,0,.555-.555V3.912a.491.491,0,0,0-.555-.555h-2.8V.578C5.335.193,5.149,0,4.779,0H2.111q-.555,0-.555.578V3.357h-1A.491.491,0,0,0,0,3.912V5.758a.491.491,0,0,0,.555.555h1V8.981a8.691,8.691,0,0,0,.255,2.211,4.013,4.013,0,0,0,.834,1.635,3.707,3.707,0,0,0,1.5,1.022,6.227,6.227,0,0,0,2.234.356,4.081,4.081,0,0,0,1.545-.267,6.4,6.4,0,0,0,1.034-.511.684.684,0,0,0,.222-.256.613.613,0,0,0-.044-.5" transform="translate(83.189 5.72)" fill="#fff"/>
    <path id="Fill_30" data-name="Fill 30" d="M19.362,10.981A2.377,2.377,0,0,1,16.85,9.425a2.917,2.917,0,0,1-.378.523,2.758,2.758,0,0,1-.622.511,3.457,3.457,0,0,1-.912.378,4.914,4.914,0,0,1-1.267.144,4.472,4.472,0,0,1-1.5-.233,3.407,3.407,0,0,1-1.111-.633,2.776,2.776,0,0,1-.7-.934,2.688,2.688,0,0,1-.178-.529.529.529,0,0,1-.067.174,4.9,4.9,0,0,1-.567.655,4.465,4.465,0,0,1-.944.7,6.241,6.241,0,0,1-1.379.567,6.514,6.514,0,0,1-1.823.233,5.951,5.951,0,0,1-2.235-.4,5.074,5.074,0,0,1-1.7-1.111A4.75,4.75,0,0,1,.377,7.747,6.365,6.365,0,0,1,0,5.513,7.415,7.415,0,0,1,.311,3.323a4.635,4.635,0,0,1,.967-1.745A4.554,4.554,0,0,1,2.956.422,6.509,6.509,0,0,1,5.424,0,5.543,5.543,0,0,1,7.536.367,3.864,3.864,0,0,1,9,1.4,4.172,4.172,0,0,1,9.848,3a7.665,7.665,0,0,1,.266,2.091A2.039,2.039,0,0,1,10,5.947a.5.5,0,0,1-.466.188H3.8v.023a1.315,1.315,0,0,0,.257.823,2.231,2.231,0,0,0,.6.544,2.446,2.446,0,0,0,.711.3,2.626,2.626,0,0,0,.589.089,2.567,2.567,0,0,0,1.39-.345,4.892,4.892,0,0,0,.833-.633A.554.554,0,0,1,8.4,6.8a.172.172,0,0,1,.054-.009.392.392,0,0,1,.256.143l1.334,1.4a.657.657,0,0,1,.1.13,2.7,2.7,0,0,1-.035-.418A2.737,2.737,0,0,1,11.07,5.8a5.234,5.234,0,0,1,3.246-.779h2.045V3.912a1.244,1.244,0,0,0-.289-.933,1.141,1.141,0,0,0-.8-.267.9.9,0,0,0-1.023,1,1.536,1.536,0,0,0,.011.189,1.08,1.08,0,0,1,.012.146.234.234,0,0,1-.1.189.931.931,0,0,1-.479.077H11.537a.631.631,0,0,1-.578-.288,1.044,1.044,0,0,1-.144-.434,3.685,3.685,0,0,1-.034-.5A2.656,2.656,0,0,1,11.937.845,5.894,5.894,0,0,1,15.405,0a5.027,5.027,0,0,1,3.633,1.1,4.057,4.057,0,0,1,1.1,2.99V7.047a.823.823,0,0,0,.178.611,1.215,1.215,0,0,0,.333.234c.029.013.092.053.2.122a.46.46,0,0,1,.155.411V10.07a.939.939,0,0,1-.056.3.649.649,0,0,1-.222.3,1.379,1.379,0,0,1-.489.221A3.46,3.46,0,0,1,19.362,10.981Zm-4.535-4.29c-.6,0-.911.254-.911.756a.621.621,0,0,0,.244.522.922.922,0,0,0,.579.189A1.854,1.854,0,0,0,15.561,8a1.878,1.878,0,0,0,.489-.334,1.22,1.22,0,0,0,.311-.511V6.691Zm-9.6-3.8a1.145,1.145,0,0,0-.823.322A2.146,2.146,0,0,0,3.89,4.246H6.535a1.378,1.378,0,0,0-.344-1.023A1.342,1.342,0,0,0,5.224,2.89Z" transform="translate(62.759 8.943)" fill="#fff"/>
    <path id="Fill_32" data-name="Fill 32" d="M8.892.556A.47.47,0,0,0,8.625.289,2.836,2.836,0,0,0,7.892.067,4.555,4.555,0,0,0,7.136,0,4.739,4.739,0,0,0,5.824.156a3.309,3.309,0,0,0-.889.389,2.082,2.082,0,0,0-.556.511A2.065,2.065,0,0,0,4.09,1.6V1.578A2.445,2.445,0,0,0,3.168.4,2.9,2.9,0,0,0,1.556,0,3.253,3.253,0,0,0,.345.156.513.513,0,0,0,0,.645v1.89a1.526,1.526,0,0,0,.044.4.223.223,0,0,0,.245.155A.7.7,0,0,1,.578,3.2a.818.818,0,0,1,.2.256,1.04,1.04,0,0,1,.089.478v6.358a.491.491,0,0,0,.556.555H4.09a.491.491,0,0,0,.556-.555V4.713a1.447,1.447,0,0,1,.067-.422,1.4,1.4,0,0,1,.211-.423,1.026,1.026,0,0,1,.4-.322,1.469,1.469,0,0,1,.634-.122,3,3,0,0,1,.8.088q.311.09.489.156a.913.913,0,0,0,.233.067c.037,0,.093-.082.167-.245L8.781,1.045A.793.793,0,0,0,8.892.556" transform="translate(54.867 8.943)" fill="#fff"/>
    <path id="Fill_34" data-name="Fill 34" d="M12.738,7.38H7.047a.492.492,0,0,0-.556.556V9.758a.492.492,0,0,0,.556.556H9.6v.022a2.2,2.2,0,0,1-.1.623,1.588,1.588,0,0,1-.367.622,2.014,2.014,0,0,1-.712.478,2.849,2.849,0,0,1-1.111.189,2.75,2.75,0,0,1-2.256-1.067A5.127,5.127,0,0,1,4.2,7.936a5.444,5.444,0,0,1,.811-3.268A2.59,2.59,0,0,1,7.2,3.579a2.2,2.2,0,0,1,1.111.244,2.138,2.138,0,0,1,.667.578,2.371,2.371,0,0,1,.356.689c.074.237.125.43.155.578a.581.581,0,0,0,.2.367.737.737,0,0,0,.534.078l2.556-.378q.557-.068.49-.556c-.045-.267-.115-.581-.212-.945a5.276,5.276,0,0,0-.444-1.111,7.657,7.657,0,0,0-.745-1.134,4.631,4.631,0,0,0-1.1-1A6.035,6.035,0,0,0,9.214.278,6.944,6.944,0,0,0,7.158,0,8.052,8.052,0,0,0,4.124.533,6,6,0,0,0,1.879,2.089a6.805,6.805,0,0,0-1.4,2.49A10.817,10.817,0,0,0,0,7.936a8.313,8.313,0,0,0,1.89,5.835,6.88,6.88,0,0,0,5.335,2.056,6.857,6.857,0,0,0,2.812-.522,5.6,5.6,0,0,0,1.9-1.334,5.122,5.122,0,0,0,1.067-1.789,5.8,5.8,0,0,0,.333-1.868V7.936q0-.556-.6-.556" transform="translate(41.351 4.097)" fill="#fff"/>
    <path id="Fill_36" data-name="Fill 36" d="M2.026,4.794H0V0H1.951A1.39,1.39,0,0,1,3.005.406a1.288,1.288,0,0,1,.385.928,1.214,1.214,0,0,1-.2.679,1.058,1.058,0,0,1-.113.147,1.255,1.255,0,0,1,.28.291,1.466,1.466,0,0,1,.259.853A1.442,1.442,0,0,1,3.185,4.35,1.527,1.527,0,0,1,2.026,4.794ZM1.109,2.784v.931h.825a.542.542,0,0,0,.4-.134.411.411,0,0,0,.146-.317.436.436,0,0,0-.143-.338.591.591,0,0,0-.428-.142Zm0-1.71v.647h.751a.392.392,0,0,0,.3-.1.325.325,0,0,0,.1-.248.252.252,0,0,0-.092-.2.423.423,0,0,0-.3-.095Z" transform="translate(150.491 2.604)" fill="#040448"/>
    <path id="Fill_38" data-name="Fill 38" d="M2.505,2.987a.833.833,0,0,1-.183.589.647.647,0,0,1-.509.19.67.67,0,0,1-.518-.186.845.845,0,0,1-.18-.593V0H0V3.091a1.725,1.725,0,0,0,.509,1.3,1.811,1.811,0,0,0,1.3.478,1.807,1.807,0,0,0,1.3-.478,1.724,1.724,0,0,0,.51-1.3V0H2.505Z" transform="translate(142.735 2.604)" fill="#040448"/>
    <path id="Fill_40" data-name="Fill 40" d="M1.115,0H0V4.794H3.4V3.7H1.115Z" transform="translate(135.755 2.604)" fill="#040448"/>
    <path id="Fill_42" data-name="Fill 42" d="M3.7,3.225a1.637,1.637,0,0,1-.544.456,1.453,1.453,0,0,1-.671.16A1.3,1.3,0,0,1,1.132,2.492a1.344,1.344,0,0,1,.393-1A1.3,1.3,0,0,1,2.486,1.1a1.4,1.4,0,0,1,1.184.622l.17.23.827-.694-.129-.2A2.2,2.2,0,0,0,3.672.29,2.539,2.539,0,0,0,2.475,0,2.429,2.429,0,0,0,.727.7,2.382,2.382,0,0,0,0,2.487a2.363,2.363,0,0,0,.716,1.76,2.425,2.425,0,0,0,1.742.685,2.625,2.625,0,0,0,1.189-.276A2.421,2.421,0,0,0,4.542,3.9l.145-.2L3.869,3Z" transform="translate(127.371 2.529)" fill="#040448"/>
    <path id="Fill_44" data-name="Fill 44" d="M21.218,5.98a2.954,2.954,0,0,0-1.1-.834A6.376,6.376,0,0,0,18.695,4.7q-.756-.144-1.423-.278a5.019,5.019,0,0,1-1.1-.333.671.671,0,0,1-.434-.645q0-.734,1.089-.734a1.531,1.531,0,0,1,.879.189.66.66,0,0,1,.255.567,1.75,1.75,0,0,1-.011.223,1.5,1.5,0,0,0-.011.177.226.226,0,0,0,.167.234,1.314,1.314,0,0,0,.411.055h2.09a.67.67,0,0,0,.6-.266,1.422,1.422,0,0,0,.156-.779,3.092,3.092,0,0,0-.223-1.156,2.446,2.446,0,0,0-.756-.989,4.116,4.116,0,0,0-1.411-.7A7.648,7.648,0,0,0,16.783,0a7.555,7.555,0,0,0-2.289.3,4.411,4.411,0,0,0-1.512.789,2.86,2.86,0,0,0-.834,1.134,3.541,3.541,0,0,0-.256,1.312,2.754,2.754,0,0,0,.4,1.556,3.028,3.028,0,0,0,1.011.956,5.033,5.033,0,0,0,1.323.533q.711.178,1.322.311a7.011,7.011,0,0,1,1.012.29q.4.156.4.466a.434.434,0,0,1-.189.378,1.6,1.6,0,0,1-.811.134,3.2,3.2,0,0,1-.945-.134,4.5,4.5,0,0,1-.789-.322,3.61,3.61,0,0,1-.611-.4q-.256-.211-.412-.367a.318.318,0,0,0-.278-.111.977.977,0,0,0-.411.266L11.772,8.175a.257.257,0,0,0-.113-.161c-.1-.051-.2-.107-.322-.167a.7.7,0,0,1-.278-.222.984.984,0,0,1-.122-.578V4.291a6.383,6.383,0,0,0-.211-1.668,3.668,3.668,0,0,0-.678-1.356A3.37,3.37,0,0,0,8.859.345,4.025,4.025,0,0,0,7.114,0,5,5,0,0,0,5.868.134,3.1,3.1,0,0,0,5,.489a2.141,2.141,0,0,0-.555.478,2.246,2.246,0,0,0-.311.523V1.468A2.317,2.317,0,0,0,1.645,0,3.47,3.47,0,0,0,.778.089a1.362,1.362,0,0,0-.5.223A.68.68,0,0,0,.055.589.776.776,0,0,0,0,.867V2.535a.529.529,0,0,0,.133.433,1.249,1.249,0,0,0,.312.167.711.711,0,0,1,.3.211.972.972,0,0,1,.123.589V10.27c0,.386.185.578.555.578H4.09c.37,0,.556-.192.556-.578V4.713a2.278,2.278,0,0,1,.089-.422,1.4,1.4,0,0,1,.211-.423,1.042,1.042,0,0,1,.389-.322,1.4,1.4,0,0,1,.622-.122,1.148,1.148,0,0,1,.856.355A1.41,1.41,0,0,1,7.158,4.8V7.758q0,3.225,3,3.224a3.476,3.476,0,0,0,.867-.089,1.37,1.37,0,0,0,.5-.222.685.685,0,0,0,.222-.278.778.778,0,0,0,.056-.278V9.334c.108.111.227.225.366.348a4.4,4.4,0,0,0,.956.611,6.957,6.957,0,0,0,1.434.489,8.681,8.681,0,0,0,1.979.2,6.3,6.3,0,0,0,3.868-.967,3.093,3.093,0,0,0,1.245-2.568,2.264,2.264,0,0,0-.434-1.467" transform="translate(132.094 8.943)" fill="#e54a52"/>
    <path id="Fill_46" data-name="Fill 46" d="M4.4,7.781a.79.79,0,0,1-.167-.022.464.464,0,0,1-.2-.111.774.774,0,0,1-.178-.256,1.16,1.16,0,0,1-.078-.478V.579Q3.779,0,3.224,0H.556Q0,0,0,.579V7.625q0,3.268,3,3.224a3.455,3.455,0,0,0,.879-.089,1.379,1.379,0,0,0,.489-.222.665.665,0,0,0,.222-.29.858.858,0,0,0,.055-.288V8.292A1.642,1.642,0,0,0,4.613,7.9c-.022-.081-.093-.122-.211-.122" transform="translate(127.381 9.076)" fill="#e54a52"/>
    <path id="Fill_48" data-name="Fill 48" d="M9.248,10.981A2.379,2.379,0,0,1,6.736,9.425a2.83,2.83,0,0,1-.378.523,2.758,2.758,0,0,1-.622.511,3.448,3.448,0,0,1-.912.378,4.9,4.9,0,0,1-1.267.144,4.472,4.472,0,0,1-1.5-.233,3.407,3.407,0,0,1-1.111-.633,2.776,2.776,0,0,1-.7-.934A2.7,2.7,0,0,1,0,8.047,2.737,2.737,0,0,1,.956,5.8,5.234,5.234,0,0,1,4.2,5.024H6.247V3.912a1.244,1.244,0,0,0-.289-.933,1.138,1.138,0,0,0-.8-.267.9.9,0,0,0-1.023,1,1.358,1.358,0,0,0,.012.189.954.954,0,0,1,.011.146.234.234,0,0,1-.1.189.928.928,0,0,1-.478.077H1.423a.629.629,0,0,1-.578-.288A1.07,1.07,0,0,1,.7,3.59a3.685,3.685,0,0,1-.034-.5A2.657,2.657,0,0,1,1.823.845,5.889,5.889,0,0,1,5.291,0,5.035,5.035,0,0,1,8.926,1.1a4.063,4.063,0,0,1,1.1,2.99V7.047a.826.826,0,0,0,.178.611,1.207,1.207,0,0,0,.333.234,2.186,2.186,0,0,1,.2.122.457.457,0,0,1,.156.411V10.07a.965.965,0,0,1-.056.3.649.649,0,0,1-.222.3,1.379,1.379,0,0,1-.489.221A3.456,3.456,0,0,1,9.248,10.981ZM4.713,6.691c-.6,0-.912.254-.912.756a.62.62,0,0,0,.245.522.921.921,0,0,0,.578.189A1.829,1.829,0,0,0,5.447,8a1.9,1.9,0,0,0,.49-.334,1.216,1.216,0,0,0,.311-.511V6.691Z" transform="translate(116.288 8.943)" fill="#e54a52"/>
    <path id="Fill_50" data-name="Fill 50" d="M8.892.556A.47.47,0,0,0,8.625.289,2.824,2.824,0,0,0,7.892.067,4.555,4.555,0,0,0,7.136,0,4.739,4.739,0,0,0,5.824.156a3.309,3.309,0,0,0-.889.389,2.062,2.062,0,0,0-.555.511,2.041,2.041,0,0,0-.29.545V1.578A2.445,2.445,0,0,0,3.168.4,2.9,2.9,0,0,0,1.556,0,3.253,3.253,0,0,0,.345.156.513.513,0,0,0,0,.645v1.89a1.526,1.526,0,0,0,.044.4.223.223,0,0,0,.245.155A.7.7,0,0,1,.578,3.2a.818.818,0,0,1,.2.256,1.04,1.04,0,0,1,.089.478v6.358a.491.491,0,0,0,.556.555H4.09a.491.491,0,0,0,.556-.555V4.713a1.447,1.447,0,0,1,.067-.422,1.4,1.4,0,0,1,.211-.423,1.026,1.026,0,0,1,.4-.322,1.469,1.469,0,0,1,.634-.122,3,3,0,0,1,.8.088q.311.09.489.156a.927.927,0,0,0,.234.067c.036,0,.092-.082.166-.245L8.781,1.045A.793.793,0,0,0,8.892.556" transform="translate(108.486 8.943)" fill="#e54a52"/>
    <path id="Fill_52" data-name="Fill 52" d="M7.38,15.561H.555A.493.493,0,0,1,0,15V.556A.493.493,0,0,1,.555,0H6.58a6.259,6.259,0,0,1,3.713.967A3.746,3.746,0,0,1,11.626,4.2a3.885,3.885,0,0,1-.278,1.6,2.72,2.72,0,0,1-.667.933,1.944,1.944,0,0,1-.823.434,3.407,3.407,0,0,1-.744.1v.045a3.285,3.285,0,0,1,1,.2,3.783,3.783,0,0,1,1.166.656,4.049,4.049,0,0,1,.978,1.178,3.52,3.52,0,0,1,.412,1.767,4.661,4.661,0,0,1-.423,2.09A3.705,3.705,0,0,1,11.1,14.572a4.782,4.782,0,0,1-1.69.756A8.733,8.733,0,0,1,7.38,15.561Zm-3.335-6.6v3.4H6.113a2.282,2.282,0,0,0,1.456-.378,1.629,1.629,0,0,0,.456-1.311,1.491,1.491,0,0,0-.567-1.322A2.532,2.532,0,0,0,6,8.959Zm0-5.757V6.18H5.624a2.091,2.091,0,0,0,1.423-.39,1.455,1.455,0,0,0,.422-1.122c0-.973-.718-1.467-2.134-1.467Z" transform="translate(96.037 4.23)" fill="#e54a52"/>
    <path id="Fill_54" data-name="Fill 54" d="M19.33,20.843a5.982,5.982,0,0,1-.664-.037,7.335,7.335,0,0,1-2.507-.778,2.468,2.468,0,0,1-.454-.359,1.97,1.97,0,0,1-.492-.728s-.011.054-.02.136a1.772,1.772,0,0,0,.071.762.55.55,0,0,0,.02.057l0,.012a.028.028,0,0,1,0,.007l0,0a1.123,1.123,0,0,0,.174.288l.005.006,0,0a4.072,4.072,0,0,1-.911.29,5.756,5.756,0,0,1-.693.1h-.018l-.047,0-.033,0-.022,0c-.108.006-.2.009-.292.009h-.08c-.147,0-.3-.006-.458-.019a5.6,5.6,0,0,1-3.6-1.628A2.294,2.294,0,0,1,9,18.515a2.115,2.115,0,0,1-.134-.3c-.016-.042-.031-.088-.046-.138a2.784,2.784,0,0,1-.106-.808,3.451,3.451,0,0,1,.052-.559.243.243,0,0,1,.007-.037,4.039,4.039,0,0,1,.607-1.49,3.016,3.016,0,0,1,.341-.42.174.174,0,0,1,.026-.025,1.6,1.6,0,0,1,.155-.141l.057-.044-.026.005a.985.985,0,0,0-.1.026,2.183,2.183,0,0,0-.288.1l-.01,0a.5.5,0,0,0-.059.029c-.033.014-.067.032-.1.049l-.048.026a2.09,2.09,0,0,0-.257.168,2,2,0,0,0-.179.149,2.345,2.345,0,0,0-.566.809,2.071,2.071,0,0,1-1.846-1.146c-.01-.023-.019-.044-.026-.065l0-.012-.011-.03c-.005-.015-.01-.029-.015-.043L6.423,14.6l-.01-.042,0-.019,0,0h0l0,0a.793.793,0,0,0-.077.2.992.992,0,0,0,.013.522.062.062,0,0,0,0,.011l0,.009a1.641,1.641,0,0,0,.559.749,2.982,2.982,0,0,0,.4.184,3.673,3.673,0,0,0,.715.187c.05.009.1.016.153.023a.012.012,0,0,1,0,.013s0,.009,0,.013a.161.161,0,0,0-.007.035,3.953,3.953,0,0,0-.082.8,3.486,3.486,0,0,0,.045.556c.018.108.041.21.068.312.021.077.047.156.077.241s.07.174.11.257a2.551,2.551,0,0,0,.168.3l0,.007,0,0a5.966,5.966,0,0,1-.965.078,6.077,6.077,0,0,1-2.155-.39,3.577,3.577,0,0,1-2.17-2.235c-.035-.1-.063-.188-.088-.273s-.048-.18-.068-.274a4.828,4.828,0,0,1-.088-.532c-.02-.175-.033-.351-.036-.522,0-.036,0-.072,0-.108a6.017,6.017,0,0,1,.038-.744H3.021a1.334,1.334,0,0,0-.632.993c0,.006,0,.011,0,.017l0,.016c0,.037-.006.077-.008.117a.211.211,0,0,0,0,.024,1.822,1.822,0,0,0,.012.258.051.051,0,0,0,0,.012L2.362,15.4c-.071-.041-.144-.083-.221-.131L2.1,15.239l-.053-.033a5.9,5.9,0,0,1-.956-.754,4.219,4.219,0,0,1-.35-.388,3.511,3.511,0,0,1-.305-.446,2.91,2.91,0,0,1-.183-.373c-.014-.033-.027-.067-.036-.093s-.026-.068-.04-.112c-.007-.024-.014-.049-.023-.074l0-.008A3.746,3.746,0,0,1,.035,12.4c0-.012,0-.023,0-.033a4.373,4.373,0,0,1,.1-1.568A5.232,5.232,0,0,1,.878,9.1c.081.083.177.173.286.266a4.189,4.189,0,0,0,.907.578,4.339,4.339,0,0,0,.941.317,4.837,4.837,0,0,0,1.041.11,2.471,2.471,0,0,0,1.812-.861l-.012,0-.006,0a5.6,5.6,0,0,1-1.8.322,3.776,3.776,0,0,1-2.021-.552A3.6,3.6,0,0,1,1.516,8.9a2.475,2.475,0,0,1-.359-.4,2.659,2.659,0,0,1-.173-.391C.977,8.1.969,8.076.963,8.055.935,7.973.909,7.889.886,7.8.869,7.742.848,7.659.831,7.571a3.865,3.865,0,0,1-.019-1.5A4,4,0,0,1,3.516,3.2l.021-.009a3.833,3.833,0,0,1,.549-.138,6.533,6.533,0,0,1,1.182-.118,3.731,3.731,0,0,1,.761.071L6.021,3,6.016,3A1.953,1.953,0,0,0,4.721,2.5c-.07,0-.143-.007-.217-.007s-.141,0-.213.006a4.34,4.34,0,0,0-.458.054.079.079,0,0,0,0-.014A3.753,3.753,0,0,1,5.446.763,6.1,6.1,0,0,1,8.579,0c.165,0,.335,0,.505.015,2.13.123,3.085.639,3.51,1.051a1.478,1.478,0,0,1,.342.482.648.648,0,0,1,.037.1,1.128,1.128,0,0,1,.058.325c-.138.074-.277.155-.414.241-.1.058-.2.125-.3.2a5.969,5.969,0,0,0-.679.549,1.81,1.81,0,0,0-.575,1.81l.007.025c0,.014.007.027.011.038l0,.008,0,.013.008.023a1.361,1.361,0,0,0,.067.164A3.186,3.186,0,0,1,12.55,2.951a6.348,6.348,0,0,1,.952-.592,6.286,6.286,0,0,1,2.536-.523,5,5,0,0,1,2.376.549,3.322,3.322,0,0,1,1.638,1.8c.011.03.022.06.031.09.019.055.037.109.052.164a5.541,5.541,0,0,1,.15.675l0,.02.017.1a3.748,3.748,0,0,1-.118.93,2.738,2.738,0,0,1-.818,1.48l-.012.009-.012.009-.01.008-.01.008a1.984,1.984,0,0,0,1.528-1.584c.021-.108.039-.215.054-.318.018-.134.031-.268.038-.4A3.9,3.9,0,0,1,22,5.249,4.547,4.547,0,0,1,25.556,6.76a3.709,3.709,0,0,1,.49.832c.04.1.078.195.111.294l.016.047.011.032a4.273,4.273,0,0,1,.187,1.322,4.329,4.329,0,0,1-.043.546,3.316,3.316,0,0,1-1.691,2.545.012.012,0,0,0-.007,0c-.052.026-.1.049-.153.069l-.011,0-.02.009a2.693,2.693,0,0,0,2.163-1.348,4.267,4.267,0,0,0,.243-.67c.037-.138.069-.283.095-.432.017-.1.031-.219.043-.351a4.373,4.373,0,0,1,1.228.667,3.027,3.027,0,0,1,1.017,1.379c.013.037.025.074.037.112l.028.1c.01.037.019.075.028.113l0,.023c0,.014.005.027.009.041.011.054.02.1.025.144l.005.036.005.036,0,.04c0,.036.008.071.011.108,0,.021,0,.041.005.063,0,.066.007.135.007.2v0c0,.089,0,.16-.008.226,0,.01,0,.021,0,.031-.005.076-.011.134-.018.19,0,.014,0,.028-.006.044v.006c-.009.059-.018.119-.03.178,0,.012,0,.023-.006.033-.011.06-.024.116-.036.164l-.016.064c-.009.032-.018.065-.028.1-.017.057-.034.112-.054.168s-.039.108-.06.161l-.007.017,0,.008c-.023.06-.051.12-.077.177l-.021.042a.231.231,0,0,1-.017.033c-.023.048-.045.089-.066.127l-.007.013c-.005.009-.01.019-.015.029-.02.034-.041.068-.061.1l-.015.024-.03.048,0,.006,0,.007a3.4,3.4,0,0,1-.351.446l-.023.024c-.022.023-.044.047-.067.07a2.95,2.95,0,0,1-.687.509l-.015.008-.022.011a3.039,3.039,0,0,1-1.322.331h-.1c-.042,0-.084,0-.127,0l-.1-.005-.031,0s.07.029.18.065a3.715,3.715,0,0,0,1.113.194,1.758,1.758,0,0,0,.82-.178c.082-.045.167-.1.267-.166a3.536,3.536,0,0,0,.3-.226c.084-.071.152-.132.213-.193.044-.044.085-.088.127-.132a3.238,3.238,0,0,1-.564,2.651,3.124,3.124,0,0,1-.284.377,3.432,3.432,0,0,1-.364.359,4.571,4.571,0,0,1-1.935.926l-.047.011c-.041.009-.083.019-.125.026-.139.029-.28.053-.419.073a8,8,0,0,1-1.137.079c-.1,0-.2,0-.3-.005-.19,0-.4-.018-.633-.041L23,19.925,23,19.917a2.649,2.649,0,0,0,.218-.309c.036-.06.07-.119.1-.177a1.747,1.747,0,0,0,.1-1.26l-.007-.026-.008-.028h0l0,0c0-.009-.005-.018-.009-.028-.01-.032-.02-.063-.031-.093a2.6,2.6,0,0,0-.218-.449c-.06-.1-.112-.171-.145-.214s-.064-.08-.067-.084c0,.026.009.052.013.077l.006.039c.01.076.02.155.027.235a3.776,3.776,0,0,1,.005.688,2.427,2.427,0,0,1-.439,1.237,2,2,0,0,1-.267.3l-.124.1a3.8,3.8,0,0,1-1.612.785,5,5,0,0,1-.5.093L20,20.8l-.038,0-.018,0h-.013l-.119.012-.051,0c-.075,0-.143.009-.212.011S19.4,20.843,19.33,20.843ZM15.067,11.4a2.7,2.7,0,0,0-1.979.824,3.729,3.729,0,0,0-.925,2.8c0,.031.006.062.009.094v.01l0,.039c0,.025.006.05.009.075.007.055.018.127.032.2s.031.145.051.214l.008.026c0,.015.009.03.014.045.018.054.038.107.059.158a4.648,4.648,0,0,0,3.145,2.4,5.279,5.279,0,0,0,1.283.162c1.612-.138,2.282-.693,2.561-1.135a1.157,1.157,0,0,0,.194-.555l-.006,0h0c-.079.073-.153.137-.226.195l0,0L19.246,17l-.022.018-.015.012L19.2,17.02a3.968,3.968,0,0,1-1.428.693,4.031,4.031,0,0,1-.985.12A4.439,4.439,0,0,1,15.7,17.7a4.043,4.043,0,0,1-2.641-1.94.927.927,0,0,1-.053-.124,1.648,1.648,0,0,1-.058-.186c-.007-.031-.014-.061-.02-.092l0-.016,0-.016c-.006-.031-.011-.064-.015-.1s-.014-.1-.019-.144a3.194,3.194,0,0,1,.776-2.491,3.37,3.37,0,0,1,2.183-1.081l-.02-.006-.01,0A2.927,2.927,0,0,0,15.067,11.4Zm4.2,2.652h0a2.938,2.938,0,0,0,.661.79.364.364,0,0,0,.037.031c.043.036.088.07.137.1.067.05.144.1.24.158a3.423,3.423,0,0,0,.826.344,2.758,2.758,0,0,0,.714.1,1.979,1.979,0,0,0,.634-.1,1.736,1.736,0,0,0,.92-.718.244.244,0,0,0,.019-.034l-.011.006-.043.028a2.376,2.376,0,0,1-1.244.313,3,3,0,0,1-.79-.1l-.04-.011-.079-.024a2.691,2.691,0,0,1-.425-.177l-.037-.019L20.7,14.69a2.42,2.42,0,0,1-1-1.159l-.02-.051c-.013-.032-.026-.064-.037-.1a3.517,3.517,0,0,0,.221-1.781,3.33,3.33,0,0,0,.807.1,3.293,3.293,0,0,0,1.921-.608,3.106,3.106,0,0,0,.9-1.088,2.426,2.426,0,0,0,.168-.561,1.578,1.578,0,0,0-.042-.723,1.007,1.007,0,0,0-.038-.107,1.377,1.377,0,0,0-.556-.652l.01.033.012.033c.006.021.012.04.017.061l0,.017a2.578,2.578,0,0,1-.95,2.533,2.486,2.486,0,0,1-1.364.458h-.084a2.425,2.425,0,0,1-.949-.191v-.013c-.036-.121-.074-.237-.115-.344a4.547,4.547,0,0,0-.833-1.386c-.058-.068-.124-.14-.214-.23a5.053,5.053,0,0,0-.543-.471,5.262,5.262,0,0,0-.553-.36l0,0L17.451,8.1a5.6,5.6,0,0,0-1.027-.445,6.418,6.418,0,0,0-1.2-.264c-.178-.022-.353-.037-.535-.046a.041.041,0,0,0,0-.011,2.634,2.634,0,0,1,1.6-2.938.16.16,0,0,0-.027,0c-.049,0-.1-.007-.16-.007a1.955,1.955,0,0,0-1.711.95s0,.01-.013.027a3.333,3.333,0,0,0-.335,1.977c-.1,0-.2.008-.293.014a7.319,7.319,0,0,0-2.419.571,1.986,1.986,0,0,1-.245.014A3.773,3.773,0,0,1,9.634,7.6l-.012-.005-.006,0c-.07-.03-.14-.064-.205-.1l-.028-.015-.021-.011L9.347,7.46a4.69,4.69,0,0,1-.754-.488,3.349,3.349,0,0,1-.95-1.147c-.025-.049-.047-.1-.068-.146-.007-.016-.013-.031-.02-.046l-.007-.018L7.536,5.58c-.01-.027-.019-.052-.027-.078s-.02-.061-.028-.092a2.377,2.377,0,0,1,.365-2.034,4.536,4.536,0,0,1,1.281-1.25H9.1a2.45,2.45,0,0,0-1.877.946,2.894,2.894,0,0,0-.443,2.477c.011.039.024.081.039.126.007.023.015.045.024.067l.008.02c0,.009.006.019.01.028l0,.011.008.018.008.018,0,.006a.03.03,0,0,1,0,.007A4.183,4.183,0,0,0,5.7,5.687c-.147,0-.3.007-.444.021-1,.141-1.092.722-1.1.837,0,.01,0,.016,0,.016a3.044,3.044,0,0,1,1.534-.339,3.134,3.134,0,0,1,1.666.44,4.517,4.517,0,0,0,.585.611c.026.023.051.043.076.063a5.4,5.4,0,0,0,.965.638h0l-.006,0L9,7.988a.953.953,0,0,1,.525.518.067.067,0,0,1,0,.014.934.934,0,0,1-.005.563A4.409,4.409,0,0,0,8.28,10.932c-.132-.014-.267-.022-.4-.025H7.762a5.612,5.612,0,0,0-1.52.213,3.318,3.318,0,0,0-1.373.845,1.5,1.5,0,0,0-.428.9c0,.011,0,.017,0,.017a4.673,4.673,0,0,1,3.323-1.374h.1a4.122,4.122,0,0,1,3.263,1.728,1.486,1.486,0,0,0-.067-.377c-.009-.036-.021-.075-.038-.122a2.712,2.712,0,0,0-1.641-1.57c-.132-.045-.263-.084-.39-.115a.022.022,0,0,1,0-.007,3.46,3.46,0,0,1,.541-.971L9.59,10A5.811,5.811,0,0,1,13.8,7.952c.17-.011.34-.017.506-.017a4.636,4.636,0,0,1,4.622,2.827c.021.059.042.117.061.177s.033.1.048.157a4.2,4.2,0,0,1,.105.527,2.765,2.765,0,0,1-.819,2.478,2.986,2.986,0,0,1-.481.367,3.364,3.364,0,0,1-1.7.482l.03.012h-.026a2.245,2.245,0,0,0,.6.136c.094.009.189.014.282.014a3.185,3.185,0,0,0,1.831-.6,3.34,3.34,0,0,0,.4-.456Z" transform="translate(1.046 2.61)" fill="#e54a52"/>
    <path id="Fill_56" data-name="Fill 56" d="M.052,7.834l.521.1A4.387,4.387,0,0,1,1.864,4.887,6.487,6.487,0,0,1,5.771,3.372c-.548-.2-1.307-.506-1.307-.506A3.76,3.76,0,0,1,6.4,1.337a7.5,7.5,0,0,1,4.746.134A1.447,1.447,0,0,1,12.075,2.9c-.267.268-1.455,1.459-1.167,2.5a4.635,4.635,0,0,1,3.007-2.343,4.871,4.871,0,0,1,4.772,1.022,3.355,3.355,0,0,1,.379,3.952,8.327,8.327,0,0,0,1.528-1.583,5.188,5.188,0,0,1,3.132.355A3.3,3.3,0,0,1,25.593,9.8a3.8,3.8,0,0,1-1.406,3.027,3.728,3.728,0,0,0,2.406-2.018c.839.239,2.87,1.316,2.348,3.49.358-.483,1.531-3.107-2.309-4.731-.133-1.69-.8-4.615-5.972-4.392-.746-1.719-2.879-4.442-7.2-3.125C12.286.848,6.956-2.382,2.877,3.061,1.144,3.994-.295,5.844.052,7.834" transform="translate(1.304 2.248)" fill="#fff"/>
    <path id="Fill_58" data-name="Fill 58" d="M0,0S.771,3.128,4.865,2.77a3.266,3.266,0,0,0-.431-1.12S1.173,1.965,0,0" transform="translate(4.741 18.811)" fill="#5b0877"/>
    <path id="Fill_60" data-name="Fill 60" d="M.042,0c-.32,1.264,1.224,3.014,3.731,3.416s2.924-.4,2.924-.4L6.048,1.893a4.375,4.375,0,0,1-2.679.384A4.119,4.119,0,0,1,.042,0" transform="translate(10.191 19.794)" fill="#5b0877"/>
    <path id="Fill_62" data-name="Fill 62" d="M.078,0C-.244.895.426,2.575,2.065,3.438l.651-1.17A3.687,3.687,0,0,1,.078,0" transform="translate(1.356 14.313)" fill="#5b0877"/>
    <path id="Fill_64" data-name="Fill 64" d="M20.746,10.162a5.019,5.019,0,0,1,.806,1.193,4.478,4.478,0,0,1,.4,1.254,6.614,6.614,0,0,1,.99.457,4.2,4.2,0,0,0,.707-3.658,4.688,4.688,0,0,0-3.239-2.994A2.705,2.705,0,0,1,19.1,7.747a4.025,4.025,0,0,0,.73-1.509l-.007,0L19.887,6a3.052,3.052,0,0,0-1.18-3.156,6.073,6.073,0,0,0-5.15-1.06,2.157,2.157,0,0,1-.542,2.03,2.29,2.29,0,0,0-.129-2.034A4.944,4.944,0,0,0,9.548.026,5.324,5.324,0,0,0,6.056.87a1.993,1.993,0,0,0-.711,1.159A1.288,1.288,0,0,1,5.388.756,5.6,5.6,0,0,0,0,1.046,5.3,5.3,0,0,1,3.105,2.83a7.243,7.243,0,0,1,5.158.46,5.41,5.41,0,0,1,.554.338A2.149,2.149,0,0,0,9.2,1.61a1.08,1.08,0,0,1,.647,1.319,2.452,2.452,0,0,1-.568,1.063,4,4,0,0,1,1.293,2.1,7.18,7.18,0,0,1,3.108.373A1.282,1.282,0,0,0,14.8,5.942a1.787,1.787,0,0,0,.017-2.393,1.425,1.425,0,0,1,1.142,1.4c.02-.009.039-.019.06-.027a1.389,1.389,0,0,1,1.709.391A2.149,2.149,0,0,0,15.7,5.8a3.3,3.3,0,0,1-.3.468l-.019.023a1.545,1.545,0,0,0-.13,1.131,4.877,4.877,0,0,1,1.537,3.324c1.778.718,2.757,1.816,2.911,3.264a5.086,5.086,0,0,1-.586,2.753,4.273,4.273,0,0,1,.088,1.993c1.391-.1,3.424-.71,4.054-2.1a2.357,2.357,0,0,0-.467-3.016,6.489,6.489,0,0,0-.779-.408c0,.068,0,.136,0,.2a2.174,2.174,0,0,1-1.133,2.017,4.933,4.933,0,0,0,0-3.861,3.338,3.338,0,0,0-3.209-2.109,2.29,2.29,0,0,1,2.421.109c.076.055.152.114.226.175a3.944,3.944,0,0,0,1.27-.846,1.406,1.406,0,0,1-.848,1.248" transform="translate(11.79 0.883)" fill="#e54a52"/>
    <path id="Fill_66" data-name="Fill 66" d="M0,1.568l1.55.162a4.977,4.977,0,0,1,4.162.009l.15.668A3.4,3.4,0,0,1,8.039,1.032,5.3,5.3,0,0,1,12.7,2.105a2.643,2.643,0,0,1,.834,2.09,6.111,6.111,0,0,0,.63-1.431,6.1,6.1,0,0,1,4.368.7,3.475,3.475,0,0,1,1.087,4.665c.726-.713.961-.756.961-.756a4.315,4.315,0,0,1,3.071,2.275,3.782,3.782,0,0,1-.4,4l.373.134s1.92-2.009.854-4.264A6.352,6.352,0,0,0,20.9,6.5a3.335,3.335,0,0,0-2.24-3.929,14.636,14.636,0,0,0-4.985-.759A4.407,4.407,0,0,0,10.375,0,11.4,11.4,0,0,0,6.319.893S2.213-.838,0,1.568" transform="translate(11.273 0.505)" fill="#fff"/>
    <path id="Fill_68" data-name="Fill 68" d="M7.473,0S7.2,2.68,3.454,2.6C-.191,2.518,0,.733,0,.733a3.962,3.962,0,0,0,2.752,1.1c1.979.151,4-.711,4.719-1.833" transform="translate(16.258 20.818)" fill="#5b0877"/>
    <path id="Fill_70" data-name="Fill 70" d="M6.019,0A3.808,3.808,0,0,1,2.843,2.883C-.091,3.39,0,3.1,0,3.1A9.64,9.64,0,0,0,1,1.086C1.4,1.92,4.439,2.729,6.019,0" transform="translate(23.45 19.637)" fill="#5b0877"/>
    <path id="Fill_72" data-name="Fill 72" d="M4.239,0a3.342,3.342,0,0,1-2.93,3.306L0,3.751V2.143S3.4,2.646,4.239,0" transform="translate(30.67 16.188)" fill="#5b0877"/>
    <path id="Fill_74" data-name="Fill 74" d="M.747.731,1.342,0s-.329,1.711.525,2.371S3.2,1.914,3.2,1.914a4.661,4.661,0,0,1-.785,2.092,3.293,3.293,0,0,1-.895,0L0,1.155Z" transform="translate(32.042 9.798)" fill="#aa2f45"/>
    <path id="Fill_76" data-name="Fill 76" d="M3.053,0S3.106,3.284,0,3.071C1.4,2.545,2.653,1.987,3.053,0" transform="translate(27.017 15.663)" fill="#5b0877"/>
    <path id="Fill_78" data-name="Fill 78" d="M6.09,1.159,6.917,0a3.382,3.382,0,0,1-2,2.655c-1.881.874-.887,3,1.8,2.636A2.813,2.813,0,0,1,4.864,6.316c-.934.156-1.947-.6-2.347-.692S.6,5.792,0,5.658A4.134,4.134,0,0,0,2.544,4.139a4.522,4.522,0,0,0,.347-2.351,4.068,4.068,0,0,0,3.2-.629" transform="translate(17.794 12.049)" fill="#aa2f45"/>
    <path id="Fill_80" data-name="Fill 80" d="M0,0C.038,1.637.9,2.151,1.946,2.787s3.568.666,4.32-.571a5.441,5.441,0,0,1-4.053-.087A3.763,3.763,0,0,1,0,0" transform="translate(14.312 17.151)" fill="#5b0877"/>
    <path id="Fill_82" data-name="Fill 82" d="M2.576,0s.547.553.518,1a1.836,1.836,0,0,1,.137,2.8c-.88,1.027-2.215.526-3.21,1.888-.264.361,2-.927,3.515-.733A10.007,10.007,0,0,1,6.175,2.17Z" transform="translate(5.897 8.879)" fill="#aa2f45"/>
    <path id="Fill_84" data-name="Fill 84" d="M.165,0a3.12,3.12,0,0,0,1.36,3.739A2.878,2.878,0,0,0,4.763,3.5S.245,3.65.165,0" transform="translate(2.15 8.62)" fill="#aa2f45"/>
    <path id="Fill_86" data-name="Fill 86" d="M5.586,1.7l1.7-.2S6.666.75,4.706,1.226.756,1.614,1.031,0A3.036,3.036,0,0,0,0,1.4,3.2,3.2,0,0,1,2.563,3.237,4.319,4.319,0,0,1,3.657,5.444,11.145,11.145,0,0,1,5.586,1.7" transform="translate(9.606 12.611)" fill="#aa2f45"/>
    <path id="Fill_88" data-name="Fill 88" d="M.054,0A3.243,3.243,0,0,0,1.833,3.437c1.589.974,2.486.2,2.486.2L6.4,3.282,6.5,1.119S6.021,2.2,3.822,2.534.239,1.661.054,0" transform="translate(8.931 6.823)" fill="#aa2f45"/>
    <path id="Fill_90" data-name="Fill 90" d="M4.085.275A2.237,2.237,0,0,1,2.2,2.164a3.709,3.709,0,0,1-1.224,0L0,0A3.353,3.353,0,0,0,1.647,1.069,2.1,2.1,0,0,0,4.085.275" transform="translate(19.605 11.542)" fill="#aa2f45"/>
    <path id="Fill_92" data-name="Fill 92" d="M0,.326.067,0S2.072,1.346,3.755.39c.084.405,2.2,1.411,3.93.6.207.256.61.033.61.033A2.773,2.773,0,0,0,8.878,2.96c.72.871,3.84,2.1,4.6.907.466-.438.6-1.2-.253-1.957a3.106,3.106,0,0,1,2.911,1.763,2.106,2.106,0,0,0-2.512.627,3.171,3.171,0,0,1-1.066,1.272L8.585,4.9S7.946,1.732,3.96,1.509c-.974.157-2.627.38-2.627.38Z" transform="translate(13.379 2.523)" fill="#aa2f45"/>
    <path id="Fill_94" data-name="Fill 94" d="M.507,0A2.552,2.552,0,0,0,.16,2.5C.534,3.818,2.144,3.559,2.144,3.559l.983-.28a2.461,2.461,0,0,1-1.714-.6A3.146,3.146,0,0,1,.507,0" transform="translate(27.323 6.8)" fill="#aa2f45"/>
    <path id="Fill_96" data-name="Fill 96" d="M0,0,.209.951A1.918,1.918,0,0,1,1.6,3.443c.483-.691.8-1.829.223-2.432A5.457,5.457,0,0,0,0,0" transform="translate(33.608 13.769)" fill="#fff"/>
    <path id="Fill_98" data-name="Fill 98" d="M3.207,6.041a3.967,3.967,0,0,0,.115-4.372A4.321,4.321,0,0,0,1.829.263,3.653,3.653,0,0,0,0,.071,5.994,5.994,0,0,1,2.523,2.547a6.077,6.077,0,0,1,.684,3.494" transform="translate(29.479 10.253)" fill="#fff"/>
    <path id="Fill_100" data-name="Fill 100" d="M.323,1.761,0,2.428A7.685,7.685,0,0,1,4.666.791c3.2-.216,5.844,3.328,3.762,5.954C9.7,6.011,10.05,4.758,9.7,3.165S7.357-.016,4.879,0A8.122,8.122,0,0,0,.323,1.761" transform="translate(10.409 10.4)" fill="#fff"/>
    <path id="Fill_102" data-name="Fill 102" d="M.475.53.539.487.461.47c.005.02.01.04.014.06" transform="translate(10.829 10.567)" fill="#040448"/>
    <path id="Fill_104" data-name="Fill 104" d="M.579,1.13A1.157,1.157,0,0,1,0,0,2.091,2.091,0,0,0,3,.209,5.829,5.829,0,0,0,2.151,1.66Z" transform="translate(7.45 17.139)" fill="#040448"/>
    <path id="Fill_106" data-name="Fill 106" d="M.3,0S-.371,1.361.3,2.053a2.748,2.748,0,0,0,2.084.464A2.521,2.521,0,0,1,.3,0" transform="translate(16.145 8.195)" fill="#040448"/>
    <g id="Group_110" data-name="Group 110">
      <path id="Clip_109-2" data-name="Clip 109" d="M0,0H36.622V24.313H0Z" fill="none"/>
      <g id="Group_110-2" data-name="Group 110" clip-path="url(#clip-path-2)">
        <path id="Fill_108" data-name="Fill 108" d="M20.424,24.313h-.052a8.023,8.023,0,0,1-3.314-.752,5.132,5.132,0,0,1-1.286.4,6.83,6.83,0,0,1-.772.1l-.073,0a.3.3,0,0,1-.04,0c-.084.006-.171.01-.267.012l-.155,0h-.057c-.091,0-.191,0-.306-.009h-.028l-.071,0c-.052,0-.106-.005-.158-.011a6.873,6.873,0,0,1-3.69-1.4l0,0-.01-.008-.018-.015-.01-.008c-.041-.032-.081-.065-.119-.1s-.085-.071-.126-.107a7.4,7.4,0,0,1-.8.091c-.086,0-.171.009-.259.011l-.175,0a7.286,7.286,0,0,1-2.58-.468,4.867,4.867,0,0,1-.6-.276l-.017-.008-.012-.006-.014-.009-.006,0a4.448,4.448,0,0,1-.7-.478,4.591,4.591,0,0,1-1.5-2.349c-.212-.106-.406-.213-.593-.327A6.636,6.636,0,0,1,1.09,17.351a4.808,4.808,0,0,1-.365-.465,3.905,3.905,0,0,1-.508-1.021l-.008-.026-.016-.052c-.039-.129-.073-.267-.1-.41a4.979,4.979,0,0,1,.136-2.417A6.17,6.17,0,0,1,1.1,11.152,4.665,4.665,0,0,1,.83,8.532,4.724,4.724,0,0,1,3.792,5.155C4.3,3.575,6.14,1.729,9.627,1.729c.187,0,.38.006.572.017l.345.023.014-.015A5.761,5.761,0,0,1,14.72.2a6.91,6.91,0,0,1,2.851.612A6.608,6.608,0,0,1,20.791,0c.224,0,.449.011.668.033A6.041,6.041,0,0,1,25.182,1.78a5.7,5.7,0,0,1,1.53-.2,7.743,7.743,0,0,1,4.473,1.486,3.821,3.821,0,0,1,1.587,3.476,5.556,5.556,0,0,1,3.673,3.528,5.119,5.119,0,0,1-.52,3.876,3.609,3.609,0,0,1-.208.315,2.6,2.6,0,0,1,.271.364,2.671,2.671,0,0,1,.241.493,3,3,0,0,1,.175.894c0,.1,0,.189,0,.282a3.74,3.74,0,0,1-.116.775,4.668,4.668,0,0,1-.268.758,3.124,3.124,0,0,1-.382.632c-.02.027-.041.053-.058.073s-.02.026-.031.04a4.468,4.468,0,0,1-1.265,1.011,6.627,6.627,0,0,1-.835.385,8.512,8.512,0,0,1-2.71.542,5.586,5.586,0,0,1-.358.641,4.19,4.19,0,0,1-.626.754c-.039.037-.083.078-.139.127a4.807,4.807,0,0,1-.872.6c-.049.028-.1.054-.151.08l-.006,0-.014.007a6.487,6.487,0,0,1-1.482.52,9.079,9.079,0,0,1-1.982.208,10.721,10.721,0,0,1-1.453-.1,5.326,5.326,0,0,1-2.352.894l-.031,0-.059.009H21.2l-.06.005-.1.012-.069.006-.03,0-.052,0h-.006c-.058,0-.12.008-.181.011C20.62,24.309,20.526,24.313,20.424,24.313ZM16.256,21.54v0h0a.044.044,0,0,0,0,.009,1.909,1.909,0,0,0,.486.714,2.574,2.574,0,0,0,.454.36,7.313,7.313,0,0,0,2.638.791c.181.016.36.023.533.023.076,0,.152,0,.226,0s.129-.005.212-.012l.169-.016h.029l.079-.011A4.744,4.744,0,0,0,21.6,23.3a3.8,3.8,0,0,0,1.6-.782l.122-.106a1.941,1.941,0,0,0,.269-.294,2.425,2.425,0,0,0,.436-1.223,3.855,3.855,0,0,0,0-.69c-.007-.081-.017-.163-.027-.235a1.009,1.009,0,0,0-.016-.116.156.156,0,0,1,.02.023l.047.06c.05.067.1.14.144.214a2.639,2.639,0,0,1,.218.449c.011.031.021.061.031.093a.127.127,0,0,1,.007.024l0,.007c.007.021.013.039.017.057a1.742,1.742,0,0,1-.105,1.248c-.03.059-.063.118-.1.177a2.292,2.292,0,0,1-.224.316h.012l0,0h0l-.005.007c.054.006.112.013.181.019l.014,0,.014,0c.236.022.452.035.662.04l.234,0a7.792,7.792,0,0,0,1.452-.13l.037-.007.019,0c.058-.01.113-.022.165-.035a4.569,4.569,0,0,0,1.99-.933,3.3,3.3,0,0,0,.365-.36,3.043,3.043,0,0,0,.289-.382,3.283,3.283,0,0,0,.572-2.643.051.051,0,0,1,0-.013c-.019.022-.04.043-.061.065l-.07.072c-.06.059-.128.121-.214.194a3.786,3.786,0,0,1-.3.229c-.089.062-.174.115-.259.162a1.763,1.763,0,0,1-.821.177,3.75,3.75,0,0,1-1.093-.187l-.165-.058-.017-.007-.018-.007.033,0c.081.005.159.008.234.008q.071,0,.14,0a3.034,3.034,0,0,0,1.292-.341c.072-.038.135-.075.193-.113a2.84,2.84,0,0,0,.509-.4c.02-.02.039-.041.059-.062l.03-.032a3.373,3.373,0,0,0,.351-.445l0-.005a.05.05,0,0,0,0-.009c.01-.015.02-.03.029-.046l.011-.018c.021-.032.042-.066.067-.111l.022-.042c.023-.04.042-.078.059-.113.006-.01.011-.019.015-.029l.009-.017c.007-.013.014-.028.021-.041.03-.066.055-.122.078-.177a.129.129,0,0,1,.005-.014l0-.011c.029-.074.055-.145.079-.219.011-.032.02-.064.03-.1s.019-.066.028-.1l.009-.032.009-.032c.014-.059.027-.117.04-.177l.005-.033c.014-.066.024-.133.031-.184V15.81c0-.01,0-.02,0-.03.008-.07.014-.132.018-.19a.176.176,0,0,0,0-.031c0-.067.008-.145.008-.223l0-.007c0-.059,0-.122-.006-.2,0-.01,0-.02,0-.031s0-.021,0-.032c0-.049-.01-.1-.016-.147,0-.024-.006-.049-.011-.072-.007-.049-.016-.1-.025-.144,0-.021-.009-.042-.013-.064s-.016-.067-.025-.1l-.028-.1c-.011-.039-.024-.076-.036-.112a3.571,3.571,0,0,0-2.249-2.058c-.01.124-.025.242-.043.351a4.391,4.391,0,0,1-.337,1.1,2.7,2.7,0,0,1-2.128,1.346h-.034l.023-.01.023-.01a3.255,3.255,0,0,0,1.836-2.613,4.165,4.165,0,0,0,.042-.546,4.208,4.208,0,0,0-.184-1.31c-.008-.027-.017-.053-.026-.079-.027-.087-.063-.18-.111-.294a3.622,3.622,0,0,0-.493-.845,4.547,4.547,0,0,0-3.553-1.511,3.912,3.912,0,0,0-1.058.125c-.006.125-.019.259-.039.4-.013.1-.031.206-.054.318a.173.173,0,0,1-.008.029,2,2,0,0,1-1.494,1.552h-.01l-.015,0,.036-.028a2.713,2.713,0,0,0,.828-1.484,3.759,3.759,0,0,0,.118-.931l-.017-.1,0-.026a5.693,5.693,0,0,0-.145-.657c-.013-.048-.029-.1-.052-.165l-.006-.019c-.008-.023-.016-.048-.026-.071a3.348,3.348,0,0,0-1.642-1.812,5,5,0,0,0-2.375-.549,6.271,6.271,0,0,0-2.533.522,6.365,6.365,0,0,0-.955.592,3.189,3.189,0,0,0-1.386,2.09s0,0,0,0a1.384,1.384,0,0,1-.06-.143l0-.009a.105.105,0,0,1,0-.013l0-.008a.121.121,0,0,1,0-.014c-.006-.015-.01-.032-.015-.049l0-.014a1.8,1.8,0,0,1,.571-1.821,5.9,5.9,0,0,1,.68-.551c.094-.067.191-.131.3-.2.139-.087.278-.168.414-.241a1.151,1.151,0,0,0-.052-.312.773.773,0,0,0-.037-.1,1.461,1.461,0,0,0-.346-.494c-.427-.412-1.383-.929-3.51-1.051-.17-.01-.34-.015-.5-.015-2.734,0-4.245,1.321-4.747,2.557l.009,0c.154-.024.3-.041.449-.05.073,0,.145-.007.214-.007s.153,0,.225.009a1.937,1.937,0,0,1,1.3.5H7.062L7.009,5.6a3.784,3.784,0,0,0-.7-.06,6.578,6.578,0,0,0-1.182.118,3.773,3.773,0,0,0-.549.139L4.559,5.8a4,4,0,0,0-2.7,2.873,3.817,3.817,0,0,0,.022,1.507c.015.077.034.153.056.233.025.1.053.18.077.251.006.021.013.041.021.06A2.717,2.717,0,0,0,2.2,11.1a2.549,2.549,0,0,0,.36.4,3.364,3.364,0,0,0,.489.372,3.775,3.775,0,0,0,2.046.567,5.58,5.58,0,0,0,1.777-.315l.036-.012-.008.011a.024.024,0,0,0,0,.007.163.163,0,0,0-.018.022,2.5,2.5,0,0,1-1.78.822,4.9,4.9,0,0,1-1.041-.11,4.459,4.459,0,0,1-.941-.317,4.313,4.313,0,0,1-.908-.579c-.107-.092-.2-.181-.285-.266a5.261,5.261,0,0,0-.748,1.705,4.324,4.324,0,0,0-.1,1.57c0,.012,0,.023,0,.033a3.8,3.8,0,0,0,.12.553.052.052,0,0,0,0,.013c.005.021.012.041.018.06s0,.01.005.013c.011.037.023.073.038.112l.023.06.014.035a2.929,2.929,0,0,0,.185.372,3.523,3.523,0,0,0,.317.456,4.538,4.538,0,0,0,.342.375,5.873,5.873,0,0,0,.956.751l.037.023.06.037c.082.051.163.1.235.139a.082.082,0,0,1,0-.008,2.044,2.044,0,0,1-.013-.251.133.133,0,0,1,0-.02c0-.045,0-.089.008-.131l0-.008,0-.01.006,0h0a1.325,1.325,0,0,1,.633-.993.044.044,0,0,0,0,.009,6.173,6.173,0,0,0-.036.733c0,.036,0,.072,0,.109,0,.175.017.346.036.509a5,5,0,0,0,.087.532c.021.092.045.189.073.286s.057.185.088.273a3.579,3.579,0,0,0,2.165,2.222,6.15,6.15,0,0,0,2.951.337l.09-.013L9.6,21.57a3.476,3.476,0,0,1-.171-.311c-.038-.076-.073-.158-.106-.245s-.057-.163-.077-.241a2.854,2.854,0,0,1-.069-.312,3.189,3.189,0,0,1-.048-.555,3.912,3.912,0,0,1,.078-.8h.008a.066.066,0,0,1,0-.019l0-.015c.193.06.388.128.6.205,0,.013-.005.025-.007.038a3.456,3.456,0,0,0-.051.56,2.781,2.781,0,0,0,.111.808l0,.011c.013.042.027.085.042.127a2.218,2.218,0,0,0,.13.292,2.3,2.3,0,0,0,.318.457,5.586,5.586,0,0,0,3.477,1.617c.2.02.405.03.612.03H14.5c.1,0,.2,0,.293-.009l.028,0,.028,0h.015l.03,0h.018a5.547,5.547,0,0,0,.692-.1,4.093,4.093,0,0,0,.906-.288,1.238,1.238,0,0,1-.179-.3c-.01-.022-.018-.045-.026-.068a1.76,1.76,0,0,1-.076-.758,1.332,1.332,0,0,1,.022-.148ZM28.982,6.1a2.144,2.144,0,0,0-1.493.567,3.468,3.468,0,0,1-.3.468l-.008.009-.011.014a1.526,1.526,0,0,0-.13,1.13.038.038,0,0,1,.005.013c.108.1.208.2.3.3a4.731,4.731,0,0,1,.912,1.492c.02.05.035.092.047.13a.424.424,0,0,1,.018.054c.029.083.056.169.082.264a5.319,5.319,0,0,1,.177,1.073A4.407,4.407,0,0,1,31.316,14.1a3.411,3.411,0,0,1,.173.777,4.084,4.084,0,0,1-.048,1.161.655.655,0,0,1-.016.082.06.06,0,0,1,0,.019,5.131,5.131,0,0,1-.152.585,6.886,6.886,0,0,1-.366.906.038.038,0,0,1,0,.012l.007.026.007.026c.015.051.029.1.04.152a4.08,4.08,0,0,1,.084.515,4.039,4.039,0,0,1-.054,1.263h0l.007,0a7.377,7.377,0,0,0,1.893-.4,5.6,5.6,0,0,0,.787-.349,4.085,4.085,0,0,0,.612-.406c.083-.068.165-.141.243-.218a2.491,2.491,0,0,0,.513-.727,3.951,3.951,0,0,0,.221-.626,2.919,2.919,0,0,0,.092-.563.081.081,0,0,0,0-.025,2.461,2.461,0,0,0-.01-.424c0-.031-.007-.06-.012-.09a2.372,2.372,0,0,0-.064-.292c-.011-.036-.023-.074-.037-.111l-.007-.02c-.006-.016-.012-.032-.018-.047l-.006-.016c-.006-.014-.011-.028-.018-.042a1.871,1.871,0,0,0-.12-.227,1.735,1.735,0,0,0-.171-.234,1.7,1.7,0,0,0-.209-.209c-.036-.031-.072-.061-.112-.09a6.635,6.635,0,0,0-.78-.409V14.1c0,.068.005.133.005.2,0,.089-.005.183-.015.287a2.375,2.375,0,0,1-.1.486,2.145,2.145,0,0,1-.329.65l-.027.035-.015.02a1.992,1.992,0,0,1-.637.533.21.21,0,0,0,.01-.022,3.933,3.933,0,0,0,.135-.374h-.008c0-.007,0-.012.006-.018l.006-.021c.005-.018.01-.034.015-.05a4.97,4.97,0,0,0,.088-2.67c-.02-.076-.043-.151-.066-.221a3.741,3.741,0,0,0-.2-.478,3.368,3.368,0,0,0-2.987-2.118c-.054,0-.109,0-.163.005h-.035l-.016,0h-.006a.025.025,0,0,1,.009-.008l.015-.01.029-.017.01-.006a1.963,1.963,0,0,1,.727-.227,2.264,2.264,0,0,1,.257-.015,2.783,2.783,0,0,1,1.371.391c.084.061.159.118.227.175a3.962,3.962,0,0,0,1.268-.846l0,0v.007s0,.006,0,.01a.078.078,0,0,1,0,.011.087.087,0,0,0,0,.011,1.012,1.012,0,0,1-.031.231,1.478,1.478,0,0,1-.817.979.028.028,0,0,1,.009.009,5.066,5.066,0,0,1,.8,1.185,4.151,4.151,0,0,1,.2.486c.032.082.056.165.076.235l.009.03c.01.034.02.069.028.1,0,.015.007.029.01.044s.007.031.011.046c.024.1.045.205.062.309a5.923,5.923,0,0,1,.725.317c.08.041.153.08.22.118.016.008.031.015.045.024a4.171,4.171,0,0,0,.707-3.66c-.022-.077-.049-.158-.08-.24A4.807,4.807,0,0,0,32.2,7.287a2.43,2.43,0,0,1-.361.592,2.827,2.827,0,0,1-.919.726l-.009,0-.008,0-.013.005L30.9,8.6l.011-.013a4.08,4.08,0,0,0,.7-1.477l-.006,0,.064-.234a3.136,3.136,0,0,0-.043-1.549l-.01-.032c-.012-.039-.024-.078-.038-.118a3.035,3.035,0,0,0-1.09-1.458A6.438,6.438,0,0,0,26.72,2.459a4.51,4.51,0,0,0-1.376.2l0,.007V2.67c.006.017.011.034.016.051l0,.007a1.708,1.708,0,0,1,.06.629,2.387,2.387,0,0,1-.6,1.3l-.007.008-.006.007-.007.006a.028.028,0,0,1-.006.007.1.1,0,0,0,.006-.016l0-.007a2.4,2.4,0,0,0,.08-1.51c-.011-.041-.025-.083-.042-.129a1.955,1.955,0,0,0-.175-.373A4.946,4.946,0,0,0,21.335.9C21.161.881,20.981.872,20.8.872a5.182,5.182,0,0,0-2.958.87A2,2,0,0,0,17.132,2.9s0,0-.005-.006a1.163,1.163,0,0,1-.064-.147c-.011-.032-.023-.069-.034-.11a1.379,1.379,0,0,1-.048-.393,1.21,1.21,0,0,1,.188-.606.011.011,0,0,1,0,0,5.644,5.644,0,0,0-2.444-.555,5.351,5.351,0,0,0-2.942.843l.011,0H11.8a6.229,6.229,0,0,1,1.033.309,5.625,5.625,0,0,1,1,.515,4.34,4.34,0,0,1,1.053.957,8.529,8.529,0,0,1,2.072-.265,7.327,7.327,0,0,1,1.032.072l.036.013.015.005a6.363,6.363,0,0,1,1.119.267l.021,0,.023,0a5.883,5.883,0,0,1,.841.363A5.614,5.614,0,0,1,20.6,4.5a1.982,1.982,0,0,0,.453-.989h.005a1.96,1.96,0,0,0-.014-.9l-.005-.016,0-.008a.093.093,0,0,0-.009-.019A.336.336,0,0,0,21,2.495a1.065,1.065,0,0,1,.611.62c.006.017.011.033.015.047a1.156,1.156,0,0,1,.044.382,1.518,1.518,0,0,1-.031.258,2.482,2.482,0,0,1-.569,1.062.035.035,0,0,0,.009.007,4.173,4.173,0,0,1,1.129,1.587c.032.083.056.152.076.216.033.108.059.2.078.293.248-.02.491-.029.721-.029a6.766,6.766,0,0,1,2.388.4l.077,0a1.279,1.279,0,0,0,1.034-.527,2.675,2.675,0,0,0,.24-.376l0-.005a.2.2,0,0,0,.023-.031l.008-.012a1.721,1.721,0,0,0,.152-1.261L27,5.1l-.008-.027c-.007-.023-.016-.047-.025-.07a1.817,1.817,0,0,0-.33-.538l-.008-.009-.016-.018a.052.052,0,0,0-.01-.012h0l.025.005.032.008a1.5,1.5,0,0,1,.983.812.836.836,0,0,1,.039.107,1.464,1.464,0,0,1,.061.465l.006,0,.018-.008.037-.015a1.86,1.86,0,0,1,.648-.126,1.31,1.31,0,0,1,1.056.508.025.025,0,0,0,.006.008l-.007,0-.007,0-.011,0A1.548,1.548,0,0,0,28.982,6.1Z" transform="translate(0 0)" fill="#040448"/>
      </g>
    </g>
    <path id="Fill_111" data-name="Fill 111" d="M3.553,6.306A3.673,3.673,0,0,1,.779,3.951a3.235,3.235,0,0,1,.735-2.766A3.371,3.371,0,0,1,3.7.1,2.827,2.827,0,0,0,.938.824,3.769,3.769,0,0,0,.067,4.043a4.3,4.3,0,0,0,3.278,2.84,5.214,5.214,0,0,0,1.282.162c2.755-.237,2.755-1.69,2.755-1.69a4.053,4.053,0,0,1-3.829.951" transform="translate(13.193 14)" fill="#040448"/>
    <path id="Fill_113" data-name="Fill 113" d="M19.468,6.608A1.122,1.122,0,0,0,19.43,6.5a1.361,1.361,0,0,0-.562-.665.065.065,0,0,1,0,.013h0c.007.022.015.043.022.065s.015.052.022.079a2.574,2.574,0,0,1-.954,2.519,2.449,2.449,0,0,1-1.3.455,2.394,2.394,0,0,1-1.1-.186h0c-.034-.116-.072-.231-.114-.344a4.544,4.544,0,0,0-.791-1.346,4.838,4.838,0,0,0-.8-.753,5.087,5.087,0,0,0-.536-.35h0a5.66,5.66,0,0,0-1.084-.472,6.446,6.446,0,0,0-1.178-.254c-.174-.022-.352-.036-.532-.045h0A2.649,2.649,0,0,1,12.1,2.274h0l.023-.009a1.986,1.986,0,0,0-1.9.941q-.031.061-.06.123A3.319,3.319,0,0,0,9.879,5.21q-.146,0-.294.015a7.321,7.321,0,0,0-2.419.57,3.462,3.462,0,0,1-1.74-.346l-.035-.016-.14-.066c-.017-.009-.032-.018-.049-.026l-.014-.007a4.666,4.666,0,0,1-.7-.447,4.094,4.094,0,0,1-.365-.318,3.242,3.242,0,0,1-.631-.857c-.023-.048-.047-.1-.067-.146-.011-.025-.021-.05-.03-.076s-.026-.067-.037-.1-.02-.061-.028-.092A2.386,2.386,0,0,1,3.687,1.25,4.577,4.577,0,0,1,4.946.013L4.968,0a2.484,2.484,0,0,0-1.9.947,2.906,2.906,0,0,0-.44,2.489c.013.042.025.085.04.126s.02.058.031.087l.01.027c.006.016.014.032.02.048h0A4.4,4.4,0,0,0,1.1,3.581C0,3.739,0,4.435,0,4.435l0,0a3.516,3.516,0,0,1,3.2.106,4.494,4.494,0,0,0,.589.615,5.326,5.326,0,0,0,1.036.7l0,0,.018.009a.949.949,0,0,1,.529.53.066.066,0,0,1,.005.015.961.961,0,0,1-.01.551A4.423,4.423,0,0,0,4.121,8.806c-.139-.014-.273-.022-.4-.025a5.581,5.581,0,0,0-1.637.212,3.386,3.386,0,0,0-1.306.773,1.5,1.5,0,0,0-.5.991s0,0,0-.005A4.657,4.657,0,0,1,3.7,9.384,4.121,4.121,0,0,1,6.958,11.1l.006.008a1.49,1.49,0,0,0-.062-.365,1.215,1.215,0,0,0-.039-.122A2.706,2.706,0,0,0,5.219,9.043C5.09,9,4.962,8.961,4.837,8.93l-.007,0a3.342,3.342,0,0,1,.512-.938c.022-.028.043-.056.066-.084a5.8,5.8,0,0,1,4.235-2.08c2.821-.19,4.53,1.211,5.131,2.822.022.059.042.117.061.177a3.94,3.94,0,0,1,.153.684,2.767,2.767,0,0,1-.819,2.478,3,3,0,0,1-.481.367,3.341,3.341,0,0,1-1.7.482l.03.012a2.4,2.4,0,0,0,.606.126,3.138,3.138,0,0,0,2.082-.588,3.281,3.281,0,0,0,.4-.458,2.923,2.923,0,0,0,.675.8.332.332,0,0,0,.038.03,1.657,1.657,0,0,0,.134.1,2.815,2.815,0,0,0,.244.157,3.335,3.335,0,0,0,.811.336,2.255,2.255,0,0,0,1.436-.031,1.727,1.727,0,0,0,.825-.674l.007-.012h0l.009-.014,0-.009L19.3,12.6l-.022.014c-.017.011-.034.023-.052.033a2.717,2.717,0,0,1-2.016.2l-.094-.027a2.622,2.622,0,0,1-.432-.176l-.039-.02c-.031-.017-.062-.034-.092-.052a2.452,2.452,0,0,1-1.008-1.157c-.02-.049-.039-.1-.058-.148l0-.011a3.546,3.546,0,0,0,.221-1.782,3.322,3.322,0,0,0,.807.1,3.278,3.278,0,0,0,1.92-.609,3.1,3.1,0,0,0,.9-1.087,2.44,2.44,0,0,0,.163-.542,1.573,1.573,0,0,0-.033-.73" transform="translate(5.201 4.724)" fill="#040448"/>
  </g>
</svg>
